<?xml version="1.0" encoding="UTF-8" standalone="no"?>
<!-- Created with Inkscape (http://www.inkscape.org/) -->

<svg
   xmlns:dc="http://purl.org/dc/elements/1.1/"
   xmlns:cc="http://creativecommons.org/ns#"
   xmlns:rdf="http://www.w3.org/1999/02/22-rdf-syntax-ns#"
   xmlns:svg="http://www.w3.org/2000/svg"
   xmlns="http://www.w3.org/2000/svg"
   version="1.1"
   width="990.9375"
   height="765.9375"
   id="svg2"
   xml:space="preserve"><metadata
     id="metadata8"><rdf:RDF><cc:Work
         rdf:about=""><dc:format>image/svg+xml</dc:format><dc:type
           rdf:resource="http://purl.org/dc/dcmitype/StillImage" /><dc:title></dc:title></cc:Work></rdf:RDF></metadata><defs
     id="defs6" /><g
     transform="matrix(1.25,0,0,-1.25,0,765.9375)"
     id="g10"><path
       d="m 321,444.75 95.25,0 -3,-3 -89.25,0 -3,3 z"
       id="path12"
       style="fill:#b3b3b3;fill-opacity:1;fill-rule:evenodd;stroke:none" /><path
       d="m 321,444.75 95.25,0 m -92.25,-3 89.25,0"
       id="path14"
       style="fill:none;stroke:#000000;stroke-width:0.23999999;stroke-linecap:round;stroke-linejoin:round;stroke-miterlimit:10;stroke-opacity:1;stroke-dasharray:none" /><path
       d="m 321,257.25 0,187.5 3,-3 0,-181.5 -3,-3 z"
       id="path16"
       style="fill:#b3b3b3;fill-opacity:1;fill-rule:evenodd;stroke:none" /><path
       d="m 321,257.25 0,187.5 m 3,-184.5 0,181.5"
       id="path18"
       style="fill:none;stroke:#000000;stroke-width:0.23999999;stroke-linecap:round;stroke-linejoin:round;stroke-miterlimit:10;stroke-opacity:1;stroke-dasharray:none" /><path
       d="m 413.25,243.75 0,198 3,3 0,-198 -3,-3 z"
       id="path20"
       style="fill:#b3b3b3;fill-opacity:1;fill-rule:evenodd;stroke:none" /><path
       d="m 413.25,243.75 0,198 m 3,-195 0,198"
       id="path22"
       style="fill:none;stroke:#000000;stroke-width:0.23999999;stroke-linecap:round;stroke-linejoin:round;stroke-miterlimit:10;stroke-opacity:1;stroke-dasharray:none" /><path
       d="m 324,396.75 89.25,0 0,3 -89.25,0 0,-3 z"
       id="path24"
       style="fill:#b3b3b3;fill-opacity:1;fill-rule:evenodd;stroke:none" /><path
       d="m 324,399.75 89.25,0 m -89.25,-3 89.25,0"
       id="path26"
       style="fill:none;stroke:#000000;stroke-width:0.23999999;stroke-linecap:round;stroke-linejoin:round;stroke-miterlimit:10;stroke-opacity:1;stroke-dasharray:none" /><path
       d="m 324,350.25 89.25,0 0,3 -89.25,0 0,-3 z"
       id="path28"
       style="fill:#b3b3b3;fill-opacity:1;fill-rule:evenodd;stroke:none" /><path
       d="m 324,353.25 89.25,0 m -89.25,-3 89.25,0"
       id="path30"
       style="fill:none;stroke:#000000;stroke-width:0.23999999;stroke-linecap:round;stroke-linejoin:round;stroke-miterlimit:10;stroke-opacity:1;stroke-dasharray:none" /><path
       d="m 324,302.25 89.25,0 0,3 -89.25,0 0,-3 z"
       id="path32"
       style="fill:#b3b3b3;fill-opacity:1;fill-rule:evenodd;stroke:none" /><path
       d="m 324,305.25 89.25,0 m -89.25,-3 89.25,0"
       id="path34"
       style="fill:none;stroke:#000000;stroke-width:0.23999999;stroke-linecap:round;stroke-linejoin:round;stroke-miterlimit:10;stroke-opacity:1;stroke-dasharray:none" /><path
       d="m 324,260.25 89.25,0 0,-3 -92.25,0 3,3 z"
       id="path36"
       style="fill:#b3b3b3;fill-opacity:1;fill-rule:evenodd;stroke:none" /><path
       d="m 324,260.25 89.25,0 m -92.25,-3 92.25,0"
       id="path38"
       style="fill:none;stroke:#000000;stroke-width:0.23999999;stroke-linecap:round;stroke-linejoin:round;stroke-miterlimit:10;stroke-opacity:1;stroke-dasharray:none" /><path
       d="m 416.25,246.75 25.5,0 -3,-3 -25.5,0 3,3 z"
       id="path40"
       style="fill:#b3b3b3;fill-opacity:1;fill-rule:evenodd;stroke:none" /><path
       d="m 416.25,246.75 25.5,0 m -28.5,-3 25.5,0"
       id="path42"
       style="fill:none;stroke:#000000;stroke-width:0.23999999;stroke-linecap:round;stroke-linejoin:round;stroke-miterlimit:10;stroke-opacity:1;stroke-dasharray:none" /><path
       d="m 441.75,246.75 0,-97.5 -3,0 0,94.5 3,3 z"
       id="path44"
       style="fill:#b3b3b3;fill-opacity:1;fill-rule:evenodd;stroke:none" /><path
       d="m 441.75,246.75 0,-97.5 -1.5,0 m -1.5,94.5 0,-94.5 1.5,0"
       id="path46"
       style="fill:none;stroke:#000000;stroke-width:0.23999999;stroke-linecap:round;stroke-linejoin:round;stroke-miterlimit:10;stroke-opacity:1;stroke-dasharray:none" /><path
       d="m 413.25,147.75 0,96 3,0 0,-99 -3,3 z"
       id="path48"
       style="fill:#b3b3b3;fill-opacity:1;fill-rule:evenodd;stroke:none" /><path
       d="m 413.25,147.75 0,96 m 3,-99 0,99"
       id="path50"
       style="fill:none;stroke:#000000;stroke-width:0.23999999;stroke-linecap:round;stroke-linejoin:round;stroke-miterlimit:10;stroke-opacity:1;stroke-dasharray:none" /><path
       d="m 373.5,230.25 39.75,0 0,3 -39.75,0 0,-3 z"
       id="path52"
       style="fill:#b3b3b3;fill-opacity:1;fill-rule:evenodd;stroke:none" /><path
       d="m 373.5,231.75 0,1.5 39.75,0 m -39.75,-1.5 0,-1.5 39.75,0"
       id="path54"
       style="fill:none;stroke:#000000;stroke-width:0.23999999;stroke-linecap:round;stroke-linejoin:round;stroke-miterlimit:10;stroke-opacity:1;stroke-dasharray:none" /><path
       d="m 319.5,230.25 49.5,0 0,3 -49.5,0 0,-3 z"
       id="path56"
       style="fill:#b3b3b3;fill-opacity:1;fill-rule:evenodd;stroke:none" /><path
       d="m 319.5,231.75 0,1.5 49.5,0 0,-1.5 m -49.5,0 0,-1.5 49.5,0 0,1.5"
       id="path58"
       style="fill:none;stroke:#000000;stroke-width:0.23999999;stroke-linecap:round;stroke-linejoin:round;stroke-miterlimit:10;stroke-opacity:1;stroke-dasharray:none" /><path
       d="m 344.25,171.75 29.25,0 0,3 -29.25,0 0,-3 z"
       id="path60"
       style="fill:#b3b3b3;fill-opacity:1;fill-rule:evenodd;stroke:none" /><path
       d="m 344.25,173.25 0,1.5 29.25,0 0,-1.5 m -29.25,0 0,-1.5 29.25,0 0,1.5"
       id="path62"
       style="fill:none;stroke:#000000;stroke-width:0.23999999;stroke-linecap:round;stroke-linejoin:round;stroke-miterlimit:10;stroke-opacity:1;stroke-dasharray:none" /><path
       d="m 312.75,174.75 11.25,0 -3,-3 -8.25,0 0,3 z"
       id="path64"
       style="fill:#b3b3b3;fill-opacity:1;fill-rule:evenodd;stroke:none" /><path
       d="m 312.75,173.25 0,1.5 11.25,0 m -11.25,-1.5 0,-1.5 8.25,0"
       id="path66"
       style="fill:none;stroke:#000000;stroke-width:0.23999999;stroke-linecap:round;stroke-linejoin:round;stroke-miterlimit:10;stroke-opacity:1;stroke-dasharray:none" /><path
       d="m 306.75,147.75 89.25,0 0,-3 -92.25,0 3,3 z"
       id="path68"
       style="fill:#b3b3b3;fill-opacity:1;fill-rule:evenodd;stroke:none" /><path
       d="m 306.75,147.75 89.25,0 m -92.25,-3 92.25,0"
       id="path70"
       style="fill:none;stroke:#000000;stroke-width:0.23999999;stroke-linecap:round;stroke-linejoin:round;stroke-miterlimit:10;stroke-opacity:1;stroke-dasharray:none" /><path
       d="m 306.75,464.25 0,-316.5 -3,-3 0,322.5 3,-3 z"
       id="path72"
       style="fill:#b3b3b3;fill-opacity:1;fill-rule:evenodd;stroke:none" /><path
       d="m 306.75,464.25 0,-316.5 m -3,319.5 0,-322.5"
       id="path74"
       style="fill:none;stroke:#000000;stroke-width:0.23999999;stroke-linecap:round;stroke-linejoin:round;stroke-miterlimit:10;stroke-opacity:1;stroke-dasharray:none" /><path
       d="m 306.75,219 27,0 0,3 -27,0 0,-3 z"
       id="path76"
       style="fill:#b3b3b3;fill-opacity:1;fill-rule:evenodd;stroke:none" /><path
       d="m 306.75,222 27,0 0,-1.5 m -27,-1.5 27,0 0,1.5"
       id="path78"
       style="fill:none;stroke:#000000;stroke-width:0.23999999;stroke-linecap:round;stroke-linejoin:round;stroke-miterlimit:10;stroke-opacity:1;stroke-dasharray:none" /><path
       d="m 321,147.75 0,24 3,3 0,-27 -3,0 z"
       id="path80"
       style="fill:#b3b3b3;fill-opacity:1;fill-rule:evenodd;stroke:none" /><path
       d="m 321,147.75 0,24 m 3,-24 0,27"
       id="path82"
       style="fill:none;stroke:#000000;stroke-width:0.23999999;stroke-linecap:round;stroke-linejoin:round;stroke-miterlimit:10;stroke-opacity:1;stroke-dasharray:none" /><path
       d="m 377.25,147.75 0,19.5 3,-3 0,-16.5 -3,0 z"
       id="path84"
       style="fill:#b3b3b3;fill-opacity:1;fill-rule:evenodd;stroke:none" /><path
       d="m 377.25,147.75 0,19.5 m 3,-19.5 0,16.5"
       id="path86"
       style="fill:none;stroke:#000000;stroke-width:0.23999999;stroke-linecap:round;stroke-linejoin:round;stroke-miterlimit:10;stroke-opacity:1;stroke-dasharray:none" /><path
       d="m 387,171.75 26.25,0 0,3 -26.25,0 0,-3 z"
       id="path88"
       style="fill:#b3b3b3;fill-opacity:1;fill-rule:evenodd;stroke:none" /><path
       d="m 387,173.25 0,1.5 26.25,0 m -26.25,-1.5 0,-1.5 26.25,0"
       id="path90"
       style="fill:none;stroke:#000000;stroke-width:0.23999999;stroke-linecap:round;stroke-linejoin:round;stroke-miterlimit:10;stroke-opacity:1;stroke-dasharray:none" /><path
       d="m 386.25,164.25 -6,0 -3,3 9,0 0,-3 z"
       id="path92"
       style="fill:#b3b3b3;fill-opacity:1;fill-rule:evenodd;stroke:none" /><path
       d="m 386.25,165.75 0,-1.5 -6,0 m 6,1.5 0,1.5 -9,0"
       id="path94"
       style="fill:none;stroke:#000000;stroke-width:0.23999999;stroke-linecap:round;stroke-linejoin:round;stroke-miterlimit:10;stroke-opacity:1;stroke-dasharray:none" /><path
       d="m 396,147.75 17.25,0 3,-3 -20.25,0 0,3 z"
       id="path96"
       style="fill:#b3b3b3;fill-opacity:1;fill-rule:evenodd;stroke:none" /><path
       d="m 396,147.75 17.25,0 m -17.25,-3 20.25,0"
       id="path98"
       style="fill:none;stroke:#000000;stroke-width:0.23999999;stroke-linecap:round;stroke-linejoin:round;stroke-miterlimit:10;stroke-opacity:1;stroke-dasharray:none" /><path
       d="m 306.75,230.25 6,0 0,3 -6,0 0,-3 z"
       id="path100"
       style="fill:#b3b3b3;fill-opacity:1;fill-rule:evenodd;stroke:none" /><path
       d="m 306.75,233.25 6,0 0,-1.5 m -6,-1.5 6,0 0,1.5"
       id="path102"
       style="fill:none;stroke:#000000;stroke-width:0.23999999;stroke-linecap:round;stroke-linejoin:round;stroke-miterlimit:10;stroke-opacity:1;stroke-dasharray:none" /><path
       d="m 303.75,467.25 97.5,0 0,-3 -94.5,0 -3,3 z"
       id="path104"
       style="fill:#b3b3b3;fill-opacity:1;fill-rule:evenodd;stroke:none" /><path
       d="m 303.75,467.25 97.5,0 0,-1.5 m -94.5,-1.5 94.5,0 0,1.5"
       id="path106"
       style="fill:none;stroke:#000000;stroke-width:0.23999999;stroke-linecap:round;stroke-linejoin:round;stroke-miterlimit:10;stroke-opacity:1;stroke-dasharray:none" /><path
       d="m 330,246.75 2.25,0 0,10.5 -2.25,0 0,-10.5 z"
       id="path108"
       style="fill:#ffffff;fill-opacity:1;fill-rule:evenodd;stroke:none" /><path
       d="m 330,246.75 2.25,0 0,10.5 -2.25,0 0,-10.5 z"
       id="path110"
       style="fill:none;stroke:#000000;stroke-width:0.23999999;stroke-linecap:round;stroke-linejoin:round;stroke-miterlimit:10;stroke-opacity:1;stroke-dasharray:none" /><path
       d="m 332.25,246.75 2.25,0 0,10.5 -2.25,0 0,-10.5 z"
       id="path112"
       style="fill:#ffffff;fill-opacity:1;fill-rule:evenodd;stroke:none" /><path
       d="m 332.25,246.75 2.25,0 0,10.5 -2.25,0 0,-10.5 z"
       id="path114"
       style="fill:none;stroke:#000000;stroke-width:0.23999999;stroke-linecap:round;stroke-linejoin:round;stroke-miterlimit:10;stroke-opacity:1;stroke-dasharray:none" /><path
       d="m 334.5,246.75 2.25,0 0,10.5 -2.25,0 0,-10.5 z"
       id="path116"
       style="fill:#ffffff;fill-opacity:1;fill-rule:evenodd;stroke:none" /><path
       d="m 334.5,246.75 2.25,0 0,10.5 -2.25,0 0,-10.5 z"
       id="path118"
       style="fill:none;stroke:#000000;stroke-width:0.23999999;stroke-linecap:round;stroke-linejoin:round;stroke-miterlimit:10;stroke-opacity:1;stroke-dasharray:none" /><path
       d="m 336.75,246.75 2.25,0 0,10.5 -2.25,0 0,-10.5 z"
       id="path120"
       style="fill:#ffffff;fill-opacity:1;fill-rule:evenodd;stroke:none" /><path
       d="m 336.75,246.75 2.25,0 0,10.5 -2.25,0 0,-10.5 z"
       id="path122"
       style="fill:none;stroke:#000000;stroke-width:0.23999999;stroke-linecap:round;stroke-linejoin:round;stroke-miterlimit:10;stroke-opacity:1;stroke-dasharray:none" /><path
       d="m 325.5,246.75 2.25,0 0,10.5 -2.25,0 0,-10.5 z"
       id="path124"
       style="fill:#ffffff;fill-opacity:1;fill-rule:evenodd;stroke:none" /><path
       d="m 325.5,246.75 2.25,0 0,10.5 -2.25,0 0,-10.5 z"
       id="path126"
       style="fill:none;stroke:#000000;stroke-width:0.23999999;stroke-linecap:round;stroke-linejoin:round;stroke-miterlimit:10;stroke-opacity:1;stroke-dasharray:none" /><path
       d="m 327.75,246.75 2.25,0 0,10.5 -2.25,0 0,-10.5 z"
       id="path128"
       style="fill:#ffffff;fill-opacity:1;fill-rule:evenodd;stroke:none" /><path
       d="m 327.75,246.75 2.25,0 0,10.5 -2.25,0 0,-10.5 z"
       id="path130"
       style="fill:none;stroke:#000000;stroke-width:0.23999999;stroke-linecap:round;stroke-linejoin:round;stroke-miterlimit:10;stroke-opacity:1;stroke-dasharray:none" /><path
       d="m 348.75,246.75 2.25,0 0,10.5 -2.25,0 0,-10.5 z"
       id="path132"
       style="fill:#ffffff;fill-opacity:1;fill-rule:evenodd;stroke:none" /><path
       d="m 348.75,246.75 2.25,0 0,10.5 -2.25,0 0,-10.5 z"
       id="path134"
       style="fill:none;stroke:#000000;stroke-width:0.23999999;stroke-linecap:round;stroke-linejoin:round;stroke-miterlimit:10;stroke-opacity:1;stroke-dasharray:none" /><path
       d="m 351,246.75 2.25,0 0,10.5 -2.25,0 0,-10.5 z"
       id="path136"
       style="fill:#ffffff;fill-opacity:1;fill-rule:evenodd;stroke:none" /><path
       d="m 351,246.75 2.25,0 0,10.5 -2.25,0 0,-10.5 z"
       id="path138"
       style="fill:none;stroke:#000000;stroke-width:0.23999999;stroke-linecap:round;stroke-linejoin:round;stroke-miterlimit:10;stroke-opacity:1;stroke-dasharray:none" /><path
       d="m 339,246.75 2.25,0 0,10.5 -2.25,0 0,-10.5 z"
       id="path140"
       style="fill:#ffffff;fill-opacity:1;fill-rule:evenodd;stroke:none" /><path
       d="m 339,246.75 2.25,0 0,10.5 -2.25,0 0,-10.5 z"
       id="path142"
       style="fill:none;stroke:#000000;stroke-width:0.23999999;stroke-linecap:round;stroke-linejoin:round;stroke-miterlimit:10;stroke-opacity:1;stroke-dasharray:none" /><path
       d="m 341.25,246.75 2.25,0 0,10.5 -2.25,0 0,-10.5 z"
       id="path144"
       style="fill:#ffffff;fill-opacity:1;fill-rule:evenodd;stroke:none" /><path
       d="m 341.25,246.75 2.25,0 0,10.5 -2.25,0 0,-10.5 z"
       id="path146"
       style="fill:none;stroke:#000000;stroke-width:0.23999999;stroke-linecap:round;stroke-linejoin:round;stroke-miterlimit:10;stroke-opacity:1;stroke-dasharray:none" /><path
       d="m 306.75,267 14.25,0 0,2.25 -14.25,0 0,-2.25 z"
       id="path148"
       style="fill:#ffffff;fill-opacity:1;fill-rule:evenodd;stroke:none" /><path
       d="m 306.75,267 14.25,0 0,2.25 -14.25,0 0,-2.25 z"
       id="path150"
       style="fill:none;stroke:#000000;stroke-width:0.23999999;stroke-linecap:round;stroke-linejoin:round;stroke-miterlimit:10;stroke-opacity:1;stroke-dasharray:none" /><path
       d="m 306.75,264.75 14.25,0 0,2.25 -14.25,0 0,-2.25 z"
       id="path152"
       style="fill:#ffffff;fill-opacity:1;fill-rule:evenodd;stroke:none" /><path
       d="m 306.75,264.75 14.25,0 0,2.25 -14.25,0 0,-2.25 z"
       id="path154"
       style="fill:none;stroke:#000000;stroke-width:0.23999999;stroke-linecap:round;stroke-linejoin:round;stroke-miterlimit:10;stroke-opacity:1;stroke-dasharray:none" /><path
       d="m 306.75,262.5 14.25,0 0,2.25 -14.25,0 0,-2.25 z"
       id="path156"
       style="fill:#ffffff;fill-opacity:1;fill-rule:evenodd;stroke:none" /><path
       d="m 306.75,262.5 14.25,0 0,2.25 -14.25,0 0,-2.25 z"
       id="path158"
       style="fill:none;stroke:#000000;stroke-width:0.23999999;stroke-linecap:round;stroke-linejoin:round;stroke-miterlimit:10;stroke-opacity:1;stroke-dasharray:none" /><path
       d="m 321.75,246.75 51,0 3,-3 -54,0 0,3 z"
       id="path160"
       style="fill:#b3b3b3;fill-opacity:1;fill-rule:evenodd;stroke:none" /><path
       d="m 321.75,245.25 0,1.5 51,0 m -51,-1.5 0,-1.5 54,0"
       id="path162"
       style="fill:none;stroke:#000000;stroke-width:0.23999999;stroke-linecap:round;stroke-linejoin:round;stroke-miterlimit:10;stroke-opacity:1;stroke-dasharray:none" /><path
       d="m 372.75,246.75 0,10.5 3,0 0,-13.5 -3,3 z"
       id="path164"
       style="fill:#b3b3b3;fill-opacity:1;fill-rule:evenodd;stroke:none" /><path
       d="m 372.75,246.75 0,10.5 m 3,-13.5 0,13.5"
       id="path166"
       style="fill:none;stroke:#000000;stroke-width:0.23999999;stroke-linecap:round;stroke-linejoin:round;stroke-miterlimit:10;stroke-opacity:1;stroke-dasharray:none" /><path
       d="m 361.5,246.75 3,0 0,10.5 -3,0 0,-10.5 z"
       id="path168"
       style="fill:#b3b3b3;fill-opacity:1;fill-rule:evenodd;stroke:none" /><path
       d="m 361.5,246.75 0,10.5 m 3,-10.5 0,10.5"
       id="path170"
       style="fill:none;stroke:#000000;stroke-width:0.23999999;stroke-linecap:round;stroke-linejoin:round;stroke-miterlimit:10;stroke-opacity:1;stroke-dasharray:none" /><path
       d="m 377.25,226.5 3,0 0,3.75 -3,0 0,-3.75 z"
       id="path172"
       style="fill:#b3b3b3;fill-opacity:1;fill-rule:evenodd;stroke:none" /><path
       d="m 377.25,230.25 3,0 0,0.75 -3,0 0,-0.75 z"
       id="path174"
       style="fill:#b3b3b3;fill-opacity:1;fill-rule:evenodd;stroke:none" /><path
       d="m 378.75,226.5 -1.5,0 0,3.75 m 1.5,-3.75 1.5,0 0,3.75"
       id="path176"
       style="fill:none;stroke:#000000;stroke-width:0.23999999;stroke-linecap:round;stroke-linejoin:round;stroke-miterlimit:10;stroke-opacity:1;stroke-dasharray:none" /><path
       d="m 357,240 3,0 0,3.75 -3,0 0,-3.75 z"
       id="path178"
       style="fill:#b3b3b3;fill-opacity:1;fill-rule:evenodd;stroke:none" /><path
       d="m 358.5,240 -1.5,0 0,3.75 m 1.5,-3.75 1.5,0 0,3.75"
       id="path180"
       style="fill:none;stroke:#000000;stroke-width:0.23999999;stroke-linecap:round;stroke-linejoin:round;stroke-miterlimit:10;stroke-opacity:1;stroke-dasharray:none" /><path
       d="m 340.5,240 3,0 0,3.75 -3,0 0,-3.75 z"
       id="path182"
       style="fill:#b3b3b3;fill-opacity:1;fill-rule:evenodd;stroke:none" /><path
       d="m 342,240 -1.5,0 0,3.75 m 1.5,-3.75 1.5,0 0,3.75"
       id="path184"
       style="fill:none;stroke:#000000;stroke-width:0.23999999;stroke-linecap:round;stroke-linejoin:round;stroke-miterlimit:10;stroke-opacity:1;stroke-dasharray:none" /><path
       d="m 372.75,240 3,0 0,3.75 -3,0 0,-3.75 z"
       id="path186"
       style="fill:#b3b3b3;fill-opacity:1;fill-rule:evenodd;stroke:none" /><path
       d="m 374.25,240 -1.5,0 0,3.75 1.5,0 m 0,-3.75 1.5,0 0,3.75 -1.5,0"
       id="path188"
       style="fill:none;stroke:#000000;stroke-width:0.23999999;stroke-linecap:round;stroke-linejoin:round;stroke-miterlimit:10;stroke-opacity:1;stroke-dasharray:none" /><text
       transform="matrix(1,0,0,-1,376.42,196.35)"
       id="text190"><tspan
         x="0 4.0547519 8.1095037"
         y="0"
         id="tspan192"
         style="font-size:7.99991989px;font-variant:normal;font-weight:bold;writing-mode:lr-tb;fill:#000000;fill-opacity:1;fill-rule:nonzero;stroke:none;font-family:CALIBRI;-inkscape-font-specification:CALIBRI Bold">201</tspan></text>
<text
       transform="matrix(1,0,0,-1,322.42,196.35)"
       id="text194"><tspan
         x="0 4.0547519 8.1095037"
         y="0"
         id="tspan196"
         style="font-size:7.99991989px;font-variant:normal;font-weight:bold;writing-mode:lr-tb;fill:#000000;fill-opacity:1;fill-rule:nonzero;stroke:none;font-family:CALIBRI;-inkscape-font-specification:CALIBRI Bold">200</tspan></text>
<text
       transform="matrix(1,0,0,-1,385.42,241.35)"
       id="text198"><tspan
         x="0 4.0547519 8.1095037"
         y="0"
         id="tspan200"
         style="font-size:7.99991989px;font-variant:normal;font-weight:bold;writing-mode:lr-tb;fill:#000000;fill-opacity:1;fill-rule:nonzero;stroke:none;font-family:CALIBRI;-inkscape-font-specification:CALIBRI Bold">202</tspan></text>
<path
       d="m 321,444.75 80.25,0 0,19.5 -80.25,0 0,-19.5 z"
       id="path202"
       style="fill:#ffffff;fill-opacity:1;fill-rule:evenodd;stroke:none" /><path
       d="m 401.25,444.75 0,19.5 -80.25,0 0,-19.5 80.25,0"
       id="path204"
       style="fill:none;stroke:#000000;stroke-width:0.23999999;stroke-linecap:round;stroke-linejoin:round;stroke-miterlimit:10;stroke-opacity:1;stroke-dasharray:none" /><path
       d="m 329.25,444.75 0,19.5 m 8.25,-19.5 0,19.5 m 7.5,-19.5 0,19.5 m 8.25,-19.5 0,19.5 m 8.25,-19.5 0,19.5 m 7.5,-19.5 0,19.5 m 8.25,-19.5 0,19.5 m 8.25,-19.5 0,19.5 m 7.5,-19.5 0,19.5 m 8.25,-19.5 0,19.5 m 0,-19.5 0,19.5 m 0,-19.5 0,19.5 m 0,-19.5 0,19.5 m 0,-19.5 0,19.5"
       id="path206"
       style="fill:none;stroke:#000000;stroke-width:0.23999999;stroke-linecap:round;stroke-linejoin:round;stroke-miterlimit:10;stroke-opacity:1;stroke-dasharray:none" /><text
       transform="matrix(1,0,0,-1,413.6,546.15)"
       id="text208"><tspan
         x="0 10.99512"
         y="0"
         id="tspan210"
         style="font-size:18px;font-variant:normal;font-weight:bold;writing-mode:lr-tb;fill:#000000;fill-opacity:1;fill-rule:nonzero;stroke:none;font-family:Arial;-inkscape-font-specification:Arial Bold">F </tspan></text>
<text
       transform="matrix(1,0,0,-1,444.6,546.15)"
       id="text212"><tspan
         x="0"
         y="0"
         id="tspan214"
         style="font-size:18px;font-variant:normal;font-weight:bold;writing-mode:lr-tb;fill:#000000;fill-opacity:1;fill-rule:nonzero;stroke:none;font-family:Arial;-inkscape-font-specification:Arial Bold">-</tspan></text>
<text
       transform="matrix(1,0,0,-1,470.6,546.15)"
       id="text216"><tspan
         x="0"
         y="0"
         id="tspan218"
         style="font-size:18px;font-variant:normal;font-weight:bold;writing-mode:lr-tb;fill:#000000;fill-opacity:1;fill-rule:nonzero;stroke:none;font-family:Arial;-inkscape-font-specification:Arial Bold">2</tspan></text>
<text
       transform="matrix(1,0,0,-1,480.61,554.74)"
       id="text220"><tspan
         x="0 7.1457839"
         y="0"
         id="tspan222"
         style="font-size:11.69855976px;font-variant:normal;font-weight:bold;writing-mode:lr-tb;fill:#000000;fill-opacity:1;fill-rule:nonzero;stroke:none;font-family:Arial;-inkscape-font-specification:Arial Bold">nd</tspan></text>
<text
       transform="matrix(1,0,0,-1,499.9,546.15)"
       id="text224"><tspan
         x="0 10.99512 15.996096 26.991217 37.986336"
         y="0"
         id="tspan226"
         style="font-size:18px;font-variant:normal;font-weight:bold;writing-mode:lr-tb;fill:#000000;fill-opacity:1;fill-rule:nonzero;stroke:none;font-family:Arial;-inkscape-font-specification:Arial Bold">Floor</tspan></text>
<text
       transform="matrix(1,0,0,-1,377.71,524.55)"
       id="text228"><tspan
         x="0 12.006 23.00112 33.012001 43.022881 48.023857 58.034737 68.045616 73.046593 78.047569 89.042686 94.043663 100.03781 111.03293 121.04381 131.05469 141.06557 146.06654 159.06543 169.07631 180.07143 186.06557 196.07645"
         y="0"
         id="tspan230"
         style="font-size:18px;font-variant:normal;font-weight:bold;writing-mode:lr-tb;fill:#000000;fill-opacity:1;fill-rule:nonzero;stroke:none;font-family:Arial;-inkscape-font-specification:Arial Bold">Physical Fitness Center</tspan></text>
<text
       transform="matrix(1,0,0,-1,54,518.25)"
       id="text232"><tspan
         x="0 5.0448961 11.015712 16.66404 22.634855 28.939608"
         y="0"
         id="tspan234"
         style="font-size:12.00024033px;font-variant:normal;font-weight:normal;writing-mode:lr-tb;fill:#000000;fill-opacity:1;fill-rule:nonzero;stroke:none;font-family:CALIBRI;-inkscape-font-specification:CALIBRI">Legend</tspan></text>
<path
       d="m 54,516.75 35.25,0"
       id="path236"
       style="fill:none;stroke:#000000;stroke-width:0.78525001;stroke-linecap:butt;stroke-linejoin:miter;stroke-miterlimit:2;stroke-opacity:1;stroke-dasharray:none" /><text
       transform="matrix(1,0,0,-1,54,503.85)"
       id="text238"><tspan
         x="0"
         y="0"
         id="tspan240"
         style="font-size:12.00024033px;font-variant:normal;font-weight:normal;writing-mode:lr-tb;fill:#000000;fill-opacity:1;fill-rule:nonzero;stroke:none;font-family:CALIBRI;-inkscape-font-specification:CALIBRI">M</tspan></text>
<text
       transform="matrix(1,0,0,-1,90,503.85)"
       id="text242"><tspan
         x="0 10.26 16.230816 21.305161 27.609913 33.35796 39.662712 42.416714 47.491055 53.239105"
         y="0"
         id="tspan244"
         style="font-size:12.00024033px;font-variant:normal;font-weight:normal;writing-mode:lr-tb;fill:#000000;fill-opacity:1;fill-rule:nonzero;stroke:none;font-family:CALIBRI;-inkscape-font-specification:CALIBRI">Mechanical</tspan></text>
<text
       transform="matrix(1,0,0,-1,54,489.45)"
       id="text246"><tspan
         x="0"
         y="0"
         id="tspan248"
         style="font-size:12.00024033px;font-variant:normal;font-weight:normal;writing-mode:lr-tb;fill:#000000;fill-opacity:1;fill-rule:nonzero;stroke:none;font-family:CALIBRI;-inkscape-font-specification:CALIBRI">J</tspan></text>
<text
       transform="matrix(1,0,0,-1,90,489.45)"
       id="text250"><tspan
         x="0 3.8262961 9.5743437 15.879096 18.633097 22.652712 28.980864 33.164425 35.918423 41.666473"
         y="0"
         id="tspan252"
         style="font-size:12.00024033px;font-variant:normal;font-weight:normal;writing-mode:lr-tb;fill:#000000;fill-opacity:1;fill-rule:nonzero;stroke:none;font-family:CALIBRI;-inkscape-font-specification:CALIBRI">Janitorial</tspan></text>
<text
       transform="matrix(1,0,0,-1,54,475.05)"
       id="text254"><tspan
         x="0 6.5157118"
         y="0"
         id="tspan256"
         style="font-size:12.00024033px;font-variant:normal;font-weight:normal;writing-mode:lr-tb;fill:#000000;fill-opacity:1;fill-rule:nonzero;stroke:none;font-family:CALIBRI;-inkscape-font-specification:CALIBRI">RR</tspan></text>
<text
       transform="matrix(1,0,0,-1,90,475.05)"
       id="text258"><tspan
         x="0 6.5157118 12.486528 17.17992 21.199535 25.383097 31.711248 38.039398 47.625481"
         y="0"
         id="tspan260"
         style="font-size:12.00024033px;font-variant:normal;font-weight:normal;writing-mode:lr-tb;fill:#000000;fill-opacity:1;fill-rule:nonzero;stroke:none;font-family:CALIBRI;-inkscape-font-specification:CALIBRI">Restrooms</tspan></text>
<text
       transform="matrix(1,0,0,-1,615.41,51.15)"
       id="text262"><tspan
         x="0 6.5157118 12.486528 17.906328 20.660328 25.35372 31.324535 37.629288"
         y="0"
         id="tspan264"
         style="font-size:12.00024033px;font-variant:normal;font-weight:normal;writing-mode:lr-tb;fill:#000000;fill-opacity:1;fill-rule:nonzero;stroke:none;font-family:CALIBRI;-inkscape-font-specification:CALIBRI">Revised </tspan></text>
<text
       transform="matrix(1,0,0,-1,655.75,51.15)"
       id="text266"><tspan
         x="0"
         y="0"
         id="tspan268"
         style="font-size:12.00024033px;font-variant:normal;font-weight:normal;writing-mode:lr-tb;fill:#000000;fill-opacity:1;fill-rule:nonzero;stroke:none;font-family:CALIBRI;-inkscape-font-specification:CALIBRI">2</tspan></text>
<text
       transform="matrix(1,0,0,-1,661.83,51.15)"
       id="text270"><tspan
         x="0"
         y="0"
         id="tspan272"
         style="font-size:12.00024033px;font-variant:normal;font-weight:normal;writing-mode:lr-tb;fill:#000000;fill-opacity:1;fill-rule:nonzero;stroke:none;font-family:CALIBRI;-inkscape-font-specification:CALIBRI">/</tspan></text>
<text
       transform="matrix(1,0,0,-1,666.47,51.15)"
       id="text274"><tspan
         x="0 6.082056"
         y="0"
         id="tspan276"
         style="font-size:12.00024033px;font-variant:normal;font-weight:normal;writing-mode:lr-tb;fill:#000000;fill-opacity:1;fill-rule:nonzero;stroke:none;font-family:CALIBRI;-inkscape-font-specification:CALIBRI">16</tspan></text>
<text
       transform="matrix(1,0,0,-1,678.63,51.15)"
       id="text278"><tspan
         x="0"
         y="0"
         id="tspan280"
         style="font-size:12.00024033px;font-variant:normal;font-weight:normal;writing-mode:lr-tb;fill:#000000;fill-opacity:1;fill-rule:nonzero;stroke:none;font-family:CALIBRI;-inkscape-font-specification:CALIBRI">/</tspan></text>
<text
       transform="matrix(1,0,0,-1,683.26,51.15)"
       id="text282"><tspan
         x="0 6.082056 12.164112 18.246168"
         y="0"
         id="tspan284"
         style="font-size:12.00024033px;font-variant:normal;font-weight:normal;writing-mode:lr-tb;fill:#000000;fill-opacity:1;fill-rule:nonzero;stroke:none;font-family:CALIBRI;-inkscape-font-specification:CALIBRI">2011</tspan></text>
<text
       transform="matrix(1,0,0,-1,344.77,430.95)"
       id="text286"><tspan
         x="0 5.7774239 10.226592 14.67576 19.562471 24.449184 28.898352 31.562569 33.785137 39.562561 44.011726 46.234295"
         y="0"
         id="tspan288"
         style="font-size:7.99991989px;font-variant:normal;font-weight:bold;writing-mode:lr-tb;fill:#000000;fill-opacity:1;fill-rule:nonzero;stroke:none;font-family:Arial;-inkscape-font-specification:Arial Bold">Racquet Ball</tspan></text>
<text
       transform="matrix(1,0,0,-1,352.78,421.35)"
       id="text290"><tspan
         x="0 5.7774239 10.664136 15.550848 18.664127 21.328344"
         y="0"
         id="tspan292"
         style="font-size:7.99991989px;font-variant:normal;font-weight:bold;writing-mode:lr-tb;fill:#000000;fill-opacity:1;fill-rule:nonzero;stroke:none;font-family:Arial;-inkscape-font-specification:Arial Bold">Court </tspan></text>
<text
       transform="matrix(1,0,0,-1,376.33,421.35)"
       id="text294"><tspan
         x="0"
         y="0"
         id="tspan296"
         style="font-size:7.99991989px;font-variant:normal;font-weight:bold;writing-mode:lr-tb;fill:#000000;fill-opacity:1;fill-rule:nonzero;stroke:none;font-family:Arial;-inkscape-font-specification:Arial Bold">#</tspan></text>
<text
       transform="matrix(1,0,0,-1,380.78,421.35)"
       id="text298"><tspan
         x="0"
         y="0"
         id="tspan300"
         style="font-size:7.99991989px;font-variant:normal;font-weight:bold;writing-mode:lr-tb;fill:#000000;fill-opacity:1;fill-rule:nonzero;stroke:none;font-family:Arial;-inkscape-font-specification:Arial Bold">4</tspan></text>
<text
       transform="matrix(1,0,0,-1,359.88,411.75)"
       id="text302"><tspan
         x="0 4.4491682 8.8983364"
         y="0"
         id="tspan304"
         style="font-size:7.99991989px;font-variant:normal;font-weight:bold;writing-mode:lr-tb;fill:#000000;fill-opacity:1;fill-rule:nonzero;stroke:none;font-family:Arial;-inkscape-font-specification:Arial Bold">106</tspan></text>
<text
       transform="matrix(1,0,0,-1,373.23,411.75)"
       id="text306"><tspan
         x="0"
         y="0"
         id="tspan308"
         style="font-size:7.99991989px;font-variant:normal;font-weight:bold;writing-mode:lr-tb;fill:#000000;fill-opacity:1;fill-rule:nonzero;stroke:none;font-family:Arial;-inkscape-font-specification:Arial Bold">d</tspan></text>
<text
       transform="matrix(1,0,0,-1,344.77,336.45)"
       id="text310"><tspan
         x="0 5.7774239 10.226592 14.67576 19.562471 24.449184 28.898352 31.562569 33.785137 39.562561 44.011726 46.234295"
         y="0"
         id="tspan312"
         style="font-size:7.99991989px;font-variant:normal;font-weight:bold;writing-mode:lr-tb;fill:#000000;fill-opacity:1;fill-rule:nonzero;stroke:none;font-family:Arial;-inkscape-font-specification:Arial Bold">Racquet Ball</tspan></text>
<text
       transform="matrix(1,0,0,-1,352.78,326.85)"
       id="text314"><tspan
         x="0 5.7774239 10.664136 15.550848 18.664127 21.328344"
         y="0"
         id="tspan316"
         style="font-size:7.99991989px;font-variant:normal;font-weight:bold;writing-mode:lr-tb;fill:#000000;fill-opacity:1;fill-rule:nonzero;stroke:none;font-family:Arial;-inkscape-font-specification:Arial Bold">Court </tspan></text>
<text
       transform="matrix(1,0,0,-1,376.33,326.85)"
       id="text318"><tspan
         x="0"
         y="0"
         id="tspan320"
         style="font-size:7.99991989px;font-variant:normal;font-weight:bold;writing-mode:lr-tb;fill:#000000;fill-opacity:1;fill-rule:nonzero;stroke:none;font-family:Arial;-inkscape-font-specification:Arial Bold">#</tspan></text>
<text
       transform="matrix(1,0,0,-1,380.78,326.85)"
       id="text322"><tspan
         x="0"
         y="0"
         id="tspan324"
         style="font-size:7.99991989px;font-variant:normal;font-weight:bold;writing-mode:lr-tb;fill:#000000;fill-opacity:1;fill-rule:nonzero;stroke:none;font-family:Arial;-inkscape-font-specification:Arial Bold">2</tspan></text>
<text
       transform="matrix(1,0,0,-1,359.88,317.25)"
       id="text326"><tspan
         x="0 4.4491682 8.8983364"
         y="0"
         id="tspan328"
         style="font-size:7.99991989px;font-variant:normal;font-weight:bold;writing-mode:lr-tb;fill:#000000;fill-opacity:1;fill-rule:nonzero;stroke:none;font-family:Arial;-inkscape-font-specification:Arial Bold">106</tspan></text>
<text
       transform="matrix(1,0,0,-1,373.23,317.25)"
       id="text330"><tspan
         x="0"
         y="0"
         id="tspan332"
         style="font-size:7.99991989px;font-variant:normal;font-weight:bold;writing-mode:lr-tb;fill:#000000;fill-opacity:1;fill-rule:nonzero;stroke:none;font-family:Arial;-inkscape-font-specification:Arial Bold">b</tspan></text>
<text
       transform="matrix(1,0,0,-1,344.77,286.95)"
       id="text334"><tspan
         x="0 5.7774239 10.226592 14.67576 19.562471 24.449184 28.898352 31.562569 33.785137 39.562561 44.011726 46.234295"
         y="0"
         id="tspan336"
         style="font-size:7.99991989px;font-variant:normal;font-weight:bold;writing-mode:lr-tb;fill:#000000;fill-opacity:1;fill-rule:nonzero;stroke:none;font-family:Arial;-inkscape-font-specification:Arial Bold">Racquet Ball</tspan></text>
<text
       transform="matrix(1,0,0,-1,352.78,277.35)"
       id="text338"><tspan
         x="0 5.7774239 10.664136 15.550848 18.664127 21.328344"
         y="0"
         id="tspan340"
         style="font-size:7.99991989px;font-variant:normal;font-weight:bold;writing-mode:lr-tb;fill:#000000;fill-opacity:1;fill-rule:nonzero;stroke:none;font-family:Arial;-inkscape-font-specification:Arial Bold">Court </tspan></text>
<text
       transform="matrix(1,0,0,-1,376.33,277.35)"
       id="text342"><tspan
         x="0"
         y="0"
         id="tspan344"
         style="font-size:7.99991989px;font-variant:normal;font-weight:bold;writing-mode:lr-tb;fill:#000000;fill-opacity:1;fill-rule:nonzero;stroke:none;font-family:Arial;-inkscape-font-specification:Arial Bold">#</tspan></text>
<text
       transform="matrix(1,0,0,-1,380.78,277.35)"
       id="text346"><tspan
         x="0"
         y="0"
         id="tspan348"
         style="font-size:7.99991989px;font-variant:normal;font-weight:bold;writing-mode:lr-tb;fill:#000000;fill-opacity:1;fill-rule:nonzero;stroke:none;font-family:Arial;-inkscape-font-specification:Arial Bold">1</tspan></text>
<text
       transform="matrix(1,0,0,-1,360.1,267.75)"
       id="text350"><tspan
         x="0 4.4491682 8.8983364"
         y="0"
         id="tspan352"
         style="font-size:7.99991989px;font-variant:normal;font-weight:bold;writing-mode:lr-tb;fill:#000000;fill-opacity:1;fill-rule:nonzero;stroke:none;font-family:Arial;-inkscape-font-specification:Arial Bold">106</tspan></text>
<text
       transform="matrix(1,0,0,-1,373.45,267.75)"
       id="text354"><tspan
         x="0"
         y="0"
         id="tspan356"
         style="font-size:7.99991989px;font-variant:normal;font-weight:bold;writing-mode:lr-tb;fill:#000000;fill-opacity:1;fill-rule:nonzero;stroke:none;font-family:Arial;-inkscape-font-specification:Arial Bold">a</tspan></text>
<text
       transform="matrix(1,0,0,-1,353.77,385.95)"
       id="text358"><tspan
         x="0 5.7774239 10.226592 14.67576 19.562471 24.449184 28.898352 31.562569 33.785137 39.562561 44.011726 46.234295"
         y="0"
         id="tspan360"
         style="font-size:7.99991989px;font-variant:normal;font-weight:bold;writing-mode:lr-tb;fill:#000000;fill-opacity:1;fill-rule:nonzero;stroke:none;font-family:Arial;-inkscape-font-specification:Arial Bold">Racquet Ball</tspan></text>
<text
       transform="matrix(1,0,0,-1,361.78,376.35)"
       id="text362"><tspan
         x="0 5.7774239 10.664136 15.550848 18.664127 21.328344"
         y="0"
         id="tspan364"
         style="font-size:7.99991989px;font-variant:normal;font-weight:bold;writing-mode:lr-tb;fill:#000000;fill-opacity:1;fill-rule:nonzero;stroke:none;font-family:Arial;-inkscape-font-specification:Arial Bold">Court </tspan></text>
<text
       transform="matrix(1,0,0,-1,385.33,376.35)"
       id="text366"><tspan
         x="0"
         y="0"
         id="tspan368"
         style="font-size:7.99991989px;font-variant:normal;font-weight:bold;writing-mode:lr-tb;fill:#000000;fill-opacity:1;fill-rule:nonzero;stroke:none;font-family:Arial;-inkscape-font-specification:Arial Bold">#</tspan></text>
<text
       transform="matrix(1,0,0,-1,389.78,376.35)"
       id="text370"><tspan
         x="0"
         y="0"
         id="tspan372"
         style="font-size:7.99991989px;font-variant:normal;font-weight:bold;writing-mode:lr-tb;fill:#000000;fill-opacity:1;fill-rule:nonzero;stroke:none;font-family:Arial;-inkscape-font-specification:Arial Bold">3</tspan></text>
<text
       transform="matrix(1,0,0,-1,369.1,366.75)"
       id="text374"><tspan
         x="0 4.4491682 8.8983364"
         y="0"
         id="tspan376"
         style="font-size:7.99991989px;font-variant:normal;font-weight:bold;writing-mode:lr-tb;fill:#000000;fill-opacity:1;fill-rule:nonzero;stroke:none;font-family:Arial;-inkscape-font-specification:Arial Bold">106</tspan></text>
<text
       transform="matrix(1,0,0,-1,382.45,366.75)"
       id="text378"><tspan
         x="0"
         y="0"
         id="tspan380"
         style="font-size:7.99991989px;font-variant:normal;font-weight:bold;writing-mode:lr-tb;fill:#000000;fill-opacity:1;fill-rule:nonzero;stroke:none;font-family:Arial;-inkscape-font-specification:Arial Bold">c</tspan></text>
<text
       transform="matrix(1,0,0,-1,395.65,155.85)"
       id="text382"><tspan
         x="0 4.0547519 8.1095037"
         y="0"
         id="tspan384"
         style="font-size:7.99991989px;font-variant:normal;font-weight:bold;writing-mode:lr-tb;fill:#000000;fill-opacity:1;fill-rule:nonzero;stroke:none;font-family:CALIBRI;-inkscape-font-specification:CALIBRI Bold">201</tspan></text>
<text
       transform="matrix(1,0,0,-1,407.81,155.85)"
       id="text386"><tspan
         x="0"
         y="0"
         id="tspan388"
         style="font-size:7.99991989px;font-variant:normal;font-weight:bold;writing-mode:lr-tb;fill:#000000;fill-opacity:1;fill-rule:nonzero;stroke:none;font-family:CALIBRI;-inkscape-font-specification:CALIBRI Bold">b</tspan></text>
<text
       transform="matrix(0,-1,-1,0,384.6,163.76)"
       id="text390"><tspan
         x="0 4.0547519 8.1095037"
         y="0"
         id="tspan392"
         style="font-size:7.99991989px;font-variant:normal;font-weight:bold;writing-mode:lr-tb;fill:#000000;fill-opacity:1;fill-rule:nonzero;stroke:none;font-family:CALIBRI;-inkscape-font-specification:CALIBRI Bold">201</tspan></text>
<text
       transform="matrix(0,-1,-1,0,384.6,151.59)"
       id="text394"><tspan
         x="0"
         y="0"
         id="tspan396"
         style="font-size:7.99991989px;font-variant:normal;font-weight:bold;writing-mode:lr-tb;fill:#000000;fill-opacity:1;fill-rule:nonzero;stroke:none;font-family:CALIBRI;-inkscape-font-specification:CALIBRI Bold">c</tspan></text>
<text
       transform="matrix(0,-1,-1,0,312.6,168.17)"
       id="text398"><tspan
         x="0 4.0547519 8.1095037"
         y="0"
         id="tspan400"
         style="font-size:7.99991989px;font-variant:normal;font-weight:bold;writing-mode:lr-tb;fill:#000000;fill-opacity:1;fill-rule:nonzero;stroke:none;font-family:CALIBRI;-inkscape-font-specification:CALIBRI Bold">200</tspan></text>
<text
       transform="matrix(0,-1,-1,0,312.6,156)"
       id="text402"><tspan
         x="0"
         y="0"
         id="tspan404"
         style="font-size:7.99991989px;font-variant:normal;font-weight:bold;writing-mode:lr-tb;fill:#000000;fill-opacity:1;fill-rule:nonzero;stroke:none;font-family:CALIBRI;-inkscape-font-specification:CALIBRI Bold">b</tspan></text>
<path
       d="m 355.5,147.75 3,0 0,82.5 -3,0 0,-82.5 z"
       id="path406"
       style="fill:#b3b3b3;fill-opacity:1;fill-rule:evenodd;stroke:none" /><path
       d="m 355.5,147.75 0,82.5 m 3,-82.5 0,82.5"
       id="path408"
       style="fill:none;stroke:#000000;stroke-width:0.23999999;stroke-linecap:round;stroke-linejoin:round;stroke-miterlimit:2;stroke-opacity:1;stroke-dasharray:none" /><path
       d="m 334.5,147.75 3,0 0,26.25 -3,0 0,-26.25 z"
       id="path410"
       style="fill:#b3b3b3;fill-opacity:1;fill-rule:evenodd;stroke:none" /><path
       d="m 334.5,147.75 0,26.25 1.5,0 m 1.5,-26.25 0,26.25 -1.5,0"
       id="path412"
       style="fill:none;stroke:#000000;stroke-width:0.23999999;stroke-linecap:round;stroke-linejoin:round;stroke-miterlimit:2;stroke-opacity:1;stroke-dasharray:none" /><text
       transform="matrix(0,-1,-1,0,327.23,168.26)"
       id="text414"><tspan
         x="0 4.0547519 8.1095037"
         y="0"
         id="tspan416"
         style="font-size:7.99991989px;font-variant:normal;font-weight:bold;writing-mode:lr-tb;fill:#000000;fill-opacity:1;fill-rule:nonzero;stroke:none;font-family:CALIBRI;-inkscape-font-specification:CALIBRI Bold">200</tspan></text>
<text
       transform="matrix(0,-1,-1,0,327.23,156.09)"
       id="text418"><tspan
         x="0"
         y="0"
         id="tspan420"
         style="font-size:7.99991989px;font-variant:normal;font-weight:bold;writing-mode:lr-tb;fill:#000000;fill-opacity:1;fill-rule:nonzero;stroke:none;font-family:CALIBRI;-inkscape-font-specification:CALIBRI Bold">c</tspan></text>
<path
       d="m 391.5,147.75 3,0 0,19.5 -3,0 0,-19.5 z"
       id="path422"
       style="fill:#b3b3b3;fill-opacity:1;fill-rule:evenodd;stroke:none" /><path
       d="m 393,167.25 1.5,0 0,-19.5 m -1.5,19.5 -1.5,0 0,-19.5"
       id="path424"
       style="fill:none;stroke:#000000;stroke-width:0.23999999;stroke-linecap:round;stroke-linejoin:round;stroke-miterlimit:2;stroke-opacity:1;stroke-dasharray:none" /></g></svg>