<?xml version="1.0" encoding="UTF-8" standalone="no"?>
<!-- Created with Inkscape (http://www.inkscape.org/) -->

<svg
   xmlns:dc="http://purl.org/dc/elements/1.1/"
   xmlns:cc="http://creativecommons.org/ns#"
   xmlns:rdf="http://www.w3.org/1999/02/22-rdf-syntax-ns#"
   xmlns:svg="http://www.w3.org/2000/svg"
   xmlns="http://www.w3.org/2000/svg"
   version="1.1"
   width="990.9375"
   height="765.9375"
   id="svg2"
   xml:space="preserve"><metadata
     id="metadata8"><rdf:RDF><cc:Work
         rdf:about=""><dc:format>image/svg+xml</dc:format><dc:type
           rdf:resource="http://purl.org/dc/dcmitype/StillImage" /><dc:title></dc:title></cc:Work></rdf:RDF></metadata><defs
     id="defs6" /><g
     transform="matrix(1.25,0,0,-1.25,0,765.9375)"
     id="g10"><path
       d="m 65.25,478.5 485.25,0 -6,-6 -473.25,0 -6,6 z"
       id="path12"
       style="fill:#b3b3b3;fill-opacity:1;fill-rule:evenodd;stroke:none" /><path
       d="m 65.25,478.5 485.25,0 m -479.25,-6 473.25,0"
       id="path14"
       style="fill:none;stroke:#000000;stroke-width:0.23999999;stroke-linecap:round;stroke-linejoin:round;stroke-miterlimit:10;stroke-opacity:1;stroke-dasharray:none" /><path
       d="m 550.5,478.5 0,-421.5 -6,6 0,409.5 6,6 z"
       id="path16"
       style="fill:#b3b3b3;fill-opacity:1;fill-rule:evenodd;stroke:none" /><path
       d="m 550.5,478.5 0,-421.5 m -6,415.5 0,-409.5"
       id="path18"
       style="fill:none;stroke:#000000;stroke-width:0.23999999;stroke-linecap:round;stroke-linejoin:round;stroke-miterlimit:10;stroke-opacity:1;stroke-dasharray:none" /><path
       d="m 550.5,57 -485.25,0 6,6 473.25,0 6,-6 z"
       id="path20"
       style="fill:#b3b3b3;fill-opacity:1;fill-rule:evenodd;stroke:none" /><path
       d="M 550.5,57 65.25,57 M 544.5,63 71.25,63"
       id="path22"
       style="fill:none;stroke:#000000;stroke-width:0.23999999;stroke-linecap:round;stroke-linejoin:round;stroke-miterlimit:10;stroke-opacity:1;stroke-dasharray:none" /><path
       d="m 65.25,57 0,421.5 6,-6 0,-409.5 -6,-6 z"
       id="path24"
       style="fill:#b3b3b3;fill-opacity:1;fill-rule:evenodd;stroke:none" /><path
       d="m 65.25,57 0,421.5 m 6,-415.5 0,409.5"
       id="path26"
       style="fill:none;stroke:#000000;stroke-width:0.23999999;stroke-linecap:round;stroke-linejoin:round;stroke-miterlimit:10;stroke-opacity:1;stroke-dasharray:none" /><path
       d="m 215.25,472.5 0,-75.75 -9,9 0,66.75 9,0 z"
       id="path28"
       style="fill:#b3b3b3;fill-opacity:1;fill-rule:evenodd;stroke:none" /><path
       d="m 206.25,472.5 9,0 0,0.75 -9,0 0,-0.75 z"
       id="path30"
       style="fill:#b3b3b3;fill-opacity:1;fill-rule:evenodd;stroke:none" /><path
       d="m 215.25,472.5 0,-75.75 m -9,75.75 0,-66.75"
       id="path32"
       style="fill:none;stroke:#000000;stroke-width:0.23999999;stroke-linecap:round;stroke-linejoin:round;stroke-miterlimit:10;stroke-opacity:1;stroke-dasharray:none" /><path
       d="m 207,257.25 0,-148.5 -9,9 0,130.5 9,9 z"
       id="path34"
       style="fill:#b3b3b3;fill-opacity:1;fill-rule:evenodd;stroke:none" /><path
       d="m 207,257.25 0,-148.5 m -9,139.5 0,-130.5"
       id="path36"
       style="fill:none;stroke:#000000;stroke-width:0.23999999;stroke-linecap:round;stroke-linejoin:round;stroke-miterlimit:10;stroke-opacity:1;stroke-dasharray:none" /><path
       d="m 126,239.25 21.75,0 9,-9 -39.75,0 9,9 z"
       id="path38"
       style="fill:#b3b3b3;fill-opacity:1;fill-rule:evenodd;stroke:none" /><path
       d="m 126,239.25 21.75,0 m -30.75,-9 39.75,0"
       id="path40"
       style="fill:none;stroke:#000000;stroke-width:0.23999999;stroke-linecap:round;stroke-linejoin:round;stroke-miterlimit:10;stroke-opacity:1;stroke-dasharray:none" /><path
       d="m 147.75,239.25 0,18 9,-9 0,-18 -9,9 z"
       id="path42"
       style="fill:#b3b3b3;fill-opacity:1;fill-rule:evenodd;stroke:none" /><path
       d="m 147.75,239.25 0,18 m 9,-27 0,18"
       id="path44"
       style="fill:none;stroke:#000000;stroke-width:0.23999999;stroke-linecap:round;stroke-linejoin:round;stroke-miterlimit:10;stroke-opacity:1;stroke-dasharray:none" /><path
       d="m 126,257.25 0,-18 -9,-9 0,18 9,9 z"
       id="path46"
       style="fill:#b3b3b3;fill-opacity:1;fill-rule:evenodd;stroke:none" /><path
       d="m 126,257.25 0,-18 m -9,9 0,-18"
       id="path48"
       style="fill:none;stroke:#000000;stroke-width:0.23999999;stroke-linecap:round;stroke-linejoin:round;stroke-miterlimit:10;stroke-opacity:1;stroke-dasharray:none" /><path
       d="m 71.25,301.5 81.75,0 0,9 -81.75,0 0,-9 z"
       id="path50"
       style="fill:#b3b3b3;fill-opacity:1;fill-rule:evenodd;stroke:none" /><path
       d="m 70.5,301.5 0.75,0 0,9 -0.75,0 0,-9 z"
       id="path52"
       style="fill:#b3b3b3;fill-opacity:1;fill-rule:evenodd;stroke:none" /><path
       d="m 71.25,310.5 81.75,0 0,-4.5 m -81.75,-4.5 81.75,0 0,4.5"
       id="path54"
       style="fill:none;stroke:#000000;stroke-width:0.23999999;stroke-linecap:round;stroke-linejoin:round;stroke-miterlimit:10;stroke-opacity:1;stroke-dasharray:none" /><path
       d="m 550.5,478.5 134.25,0 -6,-6 -128.25,0 0,6 z"
       id="path56"
       style="fill:#b3b3b3;fill-opacity:1;fill-rule:evenodd;stroke:none" /><path
       d="m 549.75,472.5 0.75,0 0,6 -0.75,0 0,-6 z"
       id="path58"
       style="fill:#b3b3b3;fill-opacity:1;fill-rule:evenodd;stroke:none" /><path
       d="m 550.5,478.5 134.25,0 m -134.25,-6 128.25,0"
       id="path60"
       style="fill:none;stroke:#000000;stroke-width:0.23999999;stroke-linecap:round;stroke-linejoin:round;stroke-miterlimit:10;stroke-opacity:1;stroke-dasharray:none" /><path
       d="m 684.75,478.5 0,-421.5 -6,6 0,409.5 6,6 z"
       id="path62"
       style="fill:#b3b3b3;fill-opacity:1;fill-rule:evenodd;stroke:none" /><path
       d="m 684.75,478.5 0,-421.5 m -6,415.5 0,-409.5"
       id="path64"
       style="fill:none;stroke:#000000;stroke-width:0.23999999;stroke-linecap:round;stroke-linejoin:round;stroke-miterlimit:10;stroke-opacity:1;stroke-dasharray:none" /><path
       d="m 657,450 24,0 0,22.5 -24,0 0,-22.5 z"
       id="path66"
       style="fill:#b2b2b2;fill-opacity:1;fill-rule:evenodd;stroke:none" /><path
       d="m 676.5,468 -15,0 0,-1.5 6.75,0 0,-10.5 -6.75,0 0,-1.5 15,0 0,1.5 -6.75,0 0,10.5 6.75,0 0,1.5 m -19.5,-18 0,22.5 24,0 0,-22.5 -24,0"
       id="path68"
       style="fill:none;stroke:#000000;stroke-width:0.23999999;stroke-linecap:round;stroke-linejoin:round;stroke-miterlimit:10;stroke-opacity:1;stroke-dasharray:none" /><path
       d="m 657,153.75 24,0 0,23.25 -24,0 0,-23.25 z"
       id="path70"
       style="fill:#b2b2b2;fill-opacity:1;fill-rule:evenodd;stroke:none" /><path
       d="m 676.5,171.75 -15,0 0,-1.5 6.75,0 0,-10.5 -6.75,0 0,-1.5 15,0 0,1.5 -6.75,0 0,10.5 6.75,0 0,1.5 m -19.5,-18 0,23.25 24,0 0,-23.25 -24,0"
       id="path72"
       style="fill:none;stroke:#000000;stroke-width:0.23999999;stroke-linecap:round;stroke-linejoin:round;stroke-miterlimit:10;stroke-opacity:1;stroke-dasharray:none" /><path
       d="m 657,336 24,0 0,22.5 -24,0 0,-22.5 z"
       id="path74"
       style="fill:#b2b2b2;fill-opacity:1;fill-rule:evenodd;stroke:none" /><path
       d="m 676.5,354 -15,0 0,-1.5 6.75,0 0,-10.5 -6.75,0 0,-1.5 15,0 0,1.5 -6.75,0 0,10.5 6.75,0 0,1.5 m -19.5,-18 0,22.5 24,0 0,-22.5 -24,0"
       id="path76"
       style="fill:none;stroke:#000000;stroke-width:0.23999999;stroke-linecap:round;stroke-linejoin:round;stroke-miterlimit:10;stroke-opacity:1;stroke-dasharray:none" /><path
       d="m 343.5,472.5 22.5,0 0,6 -22.5,0 0,-6 z"
       id="path78"
       style="fill:#ffffff;fill-opacity:1;fill-rule:evenodd;stroke:none" /><path
       d="m 343.5,472.5 22.5,0 0,6 -22.5,0 0,-6 z"
       id="path80"
       style="fill:none;stroke:#ffffff;stroke-width:0.23999999;stroke-linecap:round;stroke-linejoin:round;stroke-miterlimit:10;stroke-opacity:1;stroke-dasharray:none" /><path
       d="m 366,472.5 0,6 -3,0 0,-2.25 0,-2.25 0,-1.5 3,0 z m -22.5,0 0,6 3,0 0,-2.25 0,-2.25 0,-1.5 -3,0 z"
       id="path82"
       style="fill:#ffffff;fill-opacity:1;fill-rule:evenodd;stroke:none" /><path
       d="m 366,472.5 0,6 -3,0 0,-2.25 m 0,-2.25 0,-1.5 3,0 m -22.5,0 0,6 3,0 0,-2.25 m 0,-2.25 0,-1.5 -3,0"
       id="path84"
       style="fill:none;stroke:#000000;stroke-width:0.23999999;stroke-linecap:round;stroke-linejoin:round;stroke-miterlimit:10;stroke-opacity:1;stroke-dasharray:none" /><path
       d="m 363,476.25 -0.75,0 0,-2.25 0.75,0 0,2.25 z m -16.5,0 0.75,0 0,-2.25 -0.75,0 0,2.25 z"
       id="path86"
       style="fill:#ffffff;fill-opacity:1;fill-rule:evenodd;stroke:none" /><path
       d="m 363,476.25 -0.75,0 0,-2.25 0.75,0 m -16.5,2.25 0.75,0 0,-2.25 -0.75,0"
       id="path88"
       style="fill:none;stroke:#000000;stroke-width:0.23999999;stroke-linecap:round;stroke-linejoin:round;stroke-miterlimit:10;stroke-opacity:1;stroke-dasharray:none" /><path
       d="m 366,472.5 0,6 m -22.5,-6 0,6"
       id="path90"
       style="fill:none;stroke:#000000;stroke-width:0.23999999;stroke-linecap:round;stroke-linejoin:round;stroke-miterlimit:10;stroke-opacity:1;stroke-dasharray:none" /><path
       d="m 346.64,478.69 c 0,8.86 7.18,16.04 16.04,16.04"
       id="path92"
       style="fill:none;stroke:#000000;stroke-width:0.23999999;stroke-linecap:round;stroke-linejoin:round;stroke-miterlimit:10;stroke-opacity:1;stroke-dasharray:none" /><path
       d="m 360.75,478.5 2.25,0 0,16.5 -2.25,0 0,-16.5 z"
       id="path94"
       style="fill:#ffffff;fill-opacity:1;fill-rule:evenodd;stroke:none" /><path
       d="m 360.75,478.5 2.25,0 0,16.5 -2.25,0 0,-16.5 z"
       id="path96"
       style="fill:none;stroke:#000000;stroke-width:0.23999999;stroke-linecap:round;stroke-linejoin:round;stroke-miterlimit:10;stroke-opacity:1;stroke-dasharray:none" /><path
       d="m 307.5,57 46.5,0 0,6 -46.5,0 0,-6 z"
       id="path98"
       style="fill:#ffffff;fill-opacity:1;fill-rule:evenodd;stroke:none" /><path
       d="m 307.5,57 46.5,0 0,6 -46.5,0 0,-6 z"
       id="path100"
       style="fill:none;stroke:#ffffff;stroke-width:0.23999999;stroke-linecap:round;stroke-linejoin:round;stroke-miterlimit:10;stroke-opacity:1;stroke-dasharray:none" /><path
       d="m 354,57 0,6 -3,0 0,-2.25 0,-2.25 0,-1.5 3,0 z m -46.5,0 0,6 3,0 0,-2.25 0,-2.25 0,-1.5 -3,0 z"
       id="path102"
       style="fill:#ffffff;fill-opacity:1;fill-rule:evenodd;stroke:none" /><path
       d="m 354,57 0,6 -3,0 0,-2.25 m 0,-2.25 0,-1.5 3,0 m -46.5,0 0,6 3,0 0,-2.25 m 0,-2.25 0,-1.5 -3,0"
       id="path104"
       style="fill:none;stroke:#000000;stroke-width:0.23999999;stroke-linecap:round;stroke-linejoin:round;stroke-miterlimit:10;stroke-opacity:1;stroke-dasharray:none" /><path
       d="m 351,60.75 -0.75,0 0,-2.25 0.75,0 0,2.25 z m -40.5,0 0.75,0 0,-2.25 -0.75,0 0,2.25 z"
       id="path106"
       style="fill:#ffffff;fill-opacity:1;fill-rule:evenodd;stroke:none" /><path
       d="m 351,60.75 -0.75,0 0,-2.25 0.75,0 m -40.5,2.25 0.75,0 0,-2.25 -0.75,0"
       id="path108"
       style="fill:none;stroke:#000000;stroke-width:0.23999999;stroke-linecap:round;stroke-linejoin:round;stroke-miterlimit:10;stroke-opacity:1;stroke-dasharray:none" /><path
       d="m 354,57 0,6 m -46.5,-6 0,6"
       id="path110"
       style="fill:none;stroke:#000000;stroke-width:0.23999999;stroke-linecap:round;stroke-linejoin:round;stroke-miterlimit:10;stroke-opacity:1;stroke-dasharray:none" /><path
       d="m 330.72,62.81 c 0,11.075 -8.98,20.053 -20.05,20.053"
       id="path112"
       style="fill:none;stroke:#000000;stroke-width:0.23999999;stroke-linecap:round;stroke-linejoin:round;stroke-miterlimit:10;stroke-opacity:1;stroke-dasharray:none" /><path
       d="m 330.72,62.81 c 0,11.075 8.98,20.053 20.05,20.053"
       id="path114"
       style="fill:none;stroke:#000000;stroke-width:0.23999999;stroke-linecap:round;stroke-linejoin:round;stroke-miterlimit:10;stroke-opacity:1;stroke-dasharray:none" /><path
       d="m 310.5,63 2.25,0 0,19.5 -2.25,0 0,-19.5 z"
       id="path116"
       style="fill:#ffffff;fill-opacity:1;fill-rule:evenodd;stroke:none" /><path
       d="m 310.5,63 2.25,0 0,19.5 -2.25,0 0,-19.5 z"
       id="path118"
       style="fill:none;stroke:#000000;stroke-width:0.23999999;stroke-linecap:round;stroke-linejoin:round;stroke-miterlimit:10;stroke-opacity:1;stroke-dasharray:none" /><path
       d="m 348.75,63 2.25,0 0,19.5 -2.25,0 0,-19.5 z"
       id="path120"
       style="fill:#ffffff;fill-opacity:1;fill-rule:evenodd;stroke:none" /><path
       d="m 348.75,63 2.25,0 0,19.5 -2.25,0 0,-19.5 z"
       id="path122"
       style="fill:none;stroke:#000000;stroke-width:0.23999999;stroke-linecap:round;stroke-linejoin:round;stroke-miterlimit:10;stroke-opacity:1;stroke-dasharray:none" /><path
       d="m 544.5,297 6,0 0,21 -6,0 0,-21 z"
       id="path124"
       style="fill:#ffffff;fill-opacity:1;fill-rule:evenodd;stroke:none" /><path
       d="m 544.5,297 6,0 0,21 -6,0 0,-21 z"
       id="path126"
       style="fill:none;stroke:#ffffff;stroke-width:0.23999999;stroke-linecap:round;stroke-linejoin:round;stroke-miterlimit:10;stroke-opacity:1;stroke-dasharray:none" /><path
       d="m 544.5,297 6,0 0,3 -2.25,0 -2.25,0 -1.5,0 0,-3 z m 0,21 6,0 0,-3 -2.25,0 -2.25,0 -1.5,0 0,3 z"
       id="path128"
       style="fill:#ffffff;fill-opacity:1;fill-rule:evenodd;stroke:none" /><path
       d="m 544.5,297 6,0 0,3 -2.25,0 m -2.25,0 -1.5,0 0,-3 m 0,21 6,0 0,-3 -2.25,0 m -2.25,0 -1.5,0 0,3"
       id="path130"
       style="fill:none;stroke:#000000;stroke-width:0.23999999;stroke-linecap:round;stroke-linejoin:round;stroke-miterlimit:10;stroke-opacity:1;stroke-dasharray:none" /><path
       d="m 548.25,300 0,0.75 -2.25,0 0,-0.75 2.25,0 z m 0,15 0,-0.75 -2.25,0 0,0.75 2.25,0 z"
       id="path132"
       style="fill:#ffffff;fill-opacity:1;fill-rule:evenodd;stroke:none" /><path
       d="m 548.25,300 0,0.75 -2.25,0 0,-0.75 m 2.25,15 0,-0.75 -2.25,0 0,0.75"
       id="path134"
       style="fill:none;stroke:#000000;stroke-width:0.23999999;stroke-linecap:round;stroke-linejoin:round;stroke-miterlimit:10;stroke-opacity:1;stroke-dasharray:none" /><path
       d="m 544.5,297 6,0 m -6,21 6,0"
       id="path136"
       style="fill:none;stroke:#000000;stroke-width:0.23999999;stroke-linecap:round;stroke-linejoin:round;stroke-miterlimit:10;stroke-opacity:1;stroke-dasharray:none" /><path
       d="m 550.59,314.99 c 8.38,0 15.18,-6.79 15.18,-15.18"
       id="path138"
       style="fill:none;stroke:#000000;stroke-width:0.23999999;stroke-linecap:round;stroke-linejoin:round;stroke-miterlimit:10;stroke-opacity:1;stroke-dasharray:none" /><path
       d="m 550.5,300 15,0 0,2.25 -15,0 0,-2.25 z"
       id="path140"
       style="fill:#ffffff;fill-opacity:1;fill-rule:evenodd;stroke:none" /><path
       d="m 550.5,300 15,0 0,2.25 -15,0 0,-2.25 z"
       id="path142"
       style="fill:none;stroke:#000000;stroke-width:0.23999999;stroke-linecap:round;stroke-linejoin:round;stroke-miterlimit:10;stroke-opacity:1;stroke-dasharray:none" /><path
       d="m 71.25,405.75 135,0 9,-9 -144,0 0,9 z"
       id="path144"
       style="fill:#b3b3b3;fill-opacity:1;fill-rule:evenodd;stroke:none" /><path
       d="m 70.5,396.75 0.75,0 0,9 -0.75,0 0,-9 z"
       id="path146"
       style="fill:#b3b3b3;fill-opacity:1;fill-rule:evenodd;stroke:none" /><path
       d="m 71.25,405.75 135,0 m -135,-9 144,0"
       id="path148"
       style="fill:none;stroke:#000000;stroke-width:0.23999999;stroke-linecap:round;stroke-linejoin:round;stroke-miterlimit:10;stroke-opacity:1;stroke-dasharray:none" /><path
       d="m 550.5,123.75 128.25,0 0,6 -128.25,0 0,-6 z"
       id="path150"
       style="fill:#b3b3b3;fill-opacity:1;fill-rule:evenodd;stroke:none" /><path
       d="m 549.75,123.75 0.75,0 0,6 -0.75,0 0,-6 z"
       id="path152"
       style="fill:#b3b3b3;fill-opacity:1;fill-rule:evenodd;stroke:none" /><path
       d="m 678.75,123.75 0.75,0 0,6 -0.75,0 0,-6 z"
       id="path154"
       style="fill:#b3b3b3;fill-opacity:1;fill-rule:evenodd;stroke:none" /><path
       d="m 550.5,129.75 128.25,0 m -128.25,-6 128.25,0"
       id="path156"
       style="fill:none;stroke:#000000;stroke-width:0.23999999;stroke-linecap:round;stroke-linejoin:round;stroke-miterlimit:10;stroke-opacity:1;stroke-dasharray:none" /><path
       d="m 596.25,123 45.75,0 0,6.75 -45.75,0 0,-6.75 z"
       id="path158"
       style="fill:#ffffff;fill-opacity:1;fill-rule:evenodd;stroke:none" /><path
       d="m 596.25,123 45.75,0 0,6.75 -45.75,0 0,-6.75 z"
       id="path160"
       style="fill:none;stroke:#ffffff;stroke-width:0.23999999;stroke-linecap:round;stroke-linejoin:round;stroke-miterlimit:10;stroke-opacity:1;stroke-dasharray:none" /><path
       d="m 642,123.75 0,6 -3,0 0,-2.25 0,-2.25 0,-1.5 3,0 z m -45.75,0 0,6 3,0 0,-2.25 0,-2.25 0,-1.5 -3,0 z"
       id="path162"
       style="fill:#ffffff;fill-opacity:1;fill-rule:evenodd;stroke:none" /><path
       d="m 642,123.75 0,6 -3,0 0,-2.25 m 0,-2.25 0,-1.5 3,0 m -45.75,0 0,6 3,0 0,-2.25 m 0,-2.25 0,-1.5 -3,0"
       id="path164"
       style="fill:none;stroke:#000000;stroke-width:0.23999999;stroke-linecap:round;stroke-linejoin:round;stroke-miterlimit:10;stroke-opacity:1;stroke-dasharray:none" /><path
       d="m 639,127.5 -0.75,0 0,-2.25 0.75,0 0,2.25 z m -39.75,0 0.75,0 0,-2.25 -0.75,0 0,2.25 z"
       id="path166"
       style="fill:#ffffff;fill-opacity:1;fill-rule:evenodd;stroke:none" /><path
       d="m 639,127.5 -0.75,0 0,-2.25 0.75,0 m -39.75,2.25 0.75,0 0,-2.25 -0.75,0"
       id="path168"
       style="fill:none;stroke:#000000;stroke-width:0.23999999;stroke-linecap:round;stroke-linejoin:round;stroke-miterlimit:10;stroke-opacity:1;stroke-dasharray:none" /><path
       d="m 642,123.75 0,6 m -45.75,-6 0,6"
       id="path170"
       style="fill:none;stroke:#000000;stroke-width:0.23999999;stroke-linecap:round;stroke-linejoin:round;stroke-miterlimit:10;stroke-opacity:1;stroke-dasharray:none" /><path
       d="m 618.95,129.38 c 0,11.08 -8.98,20.06 -20.06,20.06"
       id="path172"
       style="fill:none;stroke:#000000;stroke-width:0.23999999;stroke-linecap:round;stroke-linejoin:round;stroke-miterlimit:10;stroke-opacity:1;stroke-dasharray:none" /><path
       d="m 618.95,129.38 c 0,11.08 8.98,20.06 20.05,20.06"
       id="path174"
       style="fill:none;stroke:#000000;stroke-width:0.23999999;stroke-linecap:round;stroke-linejoin:round;stroke-miterlimit:10;stroke-opacity:1;stroke-dasharray:none" /><path
       d="m 599.25,129.75 2.25,0 0,19.5 -2.25,0 0,-19.5 z"
       id="path176"
       style="fill:#ffffff;fill-opacity:1;fill-rule:evenodd;stroke:none" /><path
       d="m 599.25,129.75 2.25,0 0,19.5 -2.25,0 0,-19.5 z"
       id="path178"
       style="fill:none;stroke:#000000;stroke-width:0.23999999;stroke-linecap:round;stroke-linejoin:round;stroke-miterlimit:10;stroke-opacity:1;stroke-dasharray:none" /><path
       d="m 636.75,129.75 2.25,0 0,19.5 -2.25,0 0,-19.5 z"
       id="path180"
       style="fill:#ffffff;fill-opacity:1;fill-rule:evenodd;stroke:none" /><path
       d="m 636.75,129.75 2.25,0 0,19.5 -2.25,0 0,-19.5 z"
       id="path182"
       style="fill:none;stroke:#000000;stroke-width:0.23999999;stroke-linecap:round;stroke-linejoin:round;stroke-miterlimit:10;stroke-opacity:1;stroke-dasharray:none" /><path
       d="m 684.75,57 -140.25,0 0,6 134.25,0 6,-6 z"
       id="path184"
       style="fill:#b3b3b3;fill-opacity:1;fill-rule:evenodd;stroke:none" /><path
       d="m 543.75,57 0.75,0 0,6 -0.75,0 0,-6 z"
       id="path186"
       style="fill:#b3b3b3;fill-opacity:1;fill-rule:evenodd;stroke:none" /><path
       d="M 684.75,57 544.5,57 m 134.25,6 -134.25,0"
       id="path188"
       style="fill:none;stroke:#000000;stroke-width:0.23999999;stroke-linecap:round;stroke-linejoin:round;stroke-miterlimit:10;stroke-opacity:1;stroke-dasharray:none" /><path
       d="m 71.25,117.75 126.75,0 9,-9 -135.75,0 0,9 z"
       id="path190"
       style="fill:#b3b3b3;fill-opacity:1;fill-rule:evenodd;stroke:none" /><path
       d="m 70.5,108.75 0.75,0 0,9 -0.75,0 0,-9 z"
       id="path192"
       style="fill:#b3b3b3;fill-opacity:1;fill-rule:evenodd;stroke:none" /><path
       d="m 71.25,117.75 126.75,0 m -126.75,-9 135.75,0"
       id="path194"
       style="fill:none;stroke:#000000;stroke-width:0.23999999;stroke-linecap:round;stroke-linejoin:round;stroke-miterlimit:10;stroke-opacity:1;stroke-dasharray:none" /><path
       d="m 144,230.25 -1.5,-112.5 -9,0 1.5,112.5 9,0 z"
       id="path196"
       style="fill:#b3b3b3;fill-opacity:1;fill-rule:evenodd;stroke:none" /><path
       d="m 135,230.25 9,0 0,0.75 -9,0 0,-0.75 z"
       id="path198"
       style="fill:#b3b3b3;fill-opacity:1;fill-rule:evenodd;stroke:none" /><path
       d="m 133.5,117 9,0 0,0.75 -9,0 0,-0.75 z"
       id="path200"
       style="fill:#b3b3b3;fill-opacity:1;fill-rule:evenodd;stroke:none" /><path
       d="m 144,230.25 -1.5,-112.5 m -7.5,112.5 -1.5,-112.5"
       id="path202"
       style="fill:none;stroke:#000000;stroke-width:0.23999999;stroke-linecap:round;stroke-linejoin:round;stroke-miterlimit:10;stroke-opacity:1;stroke-dasharray:none" /><path
       d="m 436.5,63 0,90.75 9,-9 0,-81.75 -9,0 z"
       id="path204"
       style="fill:#b3b3b3;fill-opacity:1;fill-rule:evenodd;stroke:none" /><path
       d="m 436.5,62.25 9,0 0,0.75 -9,0 0,-0.75 z"
       id="path206"
       style="fill:#b3b3b3;fill-opacity:1;fill-rule:evenodd;stroke:none" /><path
       d="m 436.5,63 0,90.75 m 9,-90.75 0,81.75"
       id="path208"
       style="fill:none;stroke:#000000;stroke-width:0.23999999;stroke-linecap:round;stroke-linejoin:round;stroke-miterlimit:10;stroke-opacity:1;stroke-dasharray:none" /><path
       d="m 436.5,153.75 108,0 0,-9 -99,0 -9,9 z"
       id="path210"
       style="fill:#b3b3b3;fill-opacity:1;fill-rule:evenodd;stroke:none" /><path
       d="m 544.5,144.75 0.75,0 0,9 -0.75,0 0,-9 z"
       id="path212"
       style="fill:#b3b3b3;fill-opacity:1;fill-rule:evenodd;stroke:none" /><path
       d="m 436.5,153.75 108,0 m -99,-9 99,0"
       id="path214"
       style="fill:none;stroke:#000000;stroke-width:0.23999999;stroke-linecap:round;stroke-linejoin:round;stroke-miterlimit:10;stroke-opacity:1;stroke-dasharray:none" /><path
       d="m 436.5,119.25 9,0 0,21 -9,0 0,-21 z"
       id="path216"
       style="fill:#ffffff;fill-opacity:1;fill-rule:evenodd;stroke:none" /><path
       d="m 436.5,119.25 9,0 0,21 -9,0 0,-21 z"
       id="path218"
       style="fill:none;stroke:#ffffff;stroke-width:0.23999999;stroke-linecap:round;stroke-linejoin:round;stroke-miterlimit:10;stroke-opacity:1;stroke-dasharray:none" /><path
       d="m 445.5,140.25 -9,0 0,-3 2.25,0 2.25,0 4.5,0 0,3 z m 0,-21 -9,0 0,3 2.25,0 2.25,0 4.5,0 0,-3 z"
       id="path220"
       style="fill:#ffffff;fill-opacity:1;fill-rule:evenodd;stroke:none" /><path
       d="m 445.5,140.25 -9,0 0,-3 2.25,0 m 2.25,0 4.5,0 0,3 m 0,-21 -9,0 0,3 2.25,0 m 2.25,0 4.5,0 0,-3"
       id="path222"
       style="fill:none;stroke:#000000;stroke-width:0.23999999;stroke-linecap:round;stroke-linejoin:round;stroke-miterlimit:10;stroke-opacity:1;stroke-dasharray:none" /><path
       d="m 438.75,137.25 0,-0.75 2.25,0 0,0.75 -2.25,0 z m 0,-15 0,0.75 2.25,0 0,-0.75 -2.25,0 z"
       id="path224"
       style="fill:#ffffff;fill-opacity:1;fill-rule:evenodd;stroke:none" /><path
       d="m 438.75,137.25 0,-0.75 2.25,0 0,0.75 m -2.25,-15 0,0.75 2.25,0 0,-0.75"
       id="path226"
       style="fill:none;stroke:#000000;stroke-width:0.23999999;stroke-linecap:round;stroke-linejoin:round;stroke-miterlimit:10;stroke-opacity:1;stroke-dasharray:none" /><path
       d="m 445.5,140.25 -9,0 m 9,-21 -9,0"
       id="path228"
       style="fill:none;stroke:#000000;stroke-width:0.23999999;stroke-linecap:round;stroke-linejoin:round;stroke-miterlimit:10;stroke-opacity:1;stroke-dasharray:none" /><path
       d="m 436.66,122.25 c -8.38,0 -15.18,6.8 -15.18,15.18"
       id="path230"
       style="fill:none;stroke:#000000;stroke-width:0.23999999;stroke-linecap:round;stroke-linejoin:round;stroke-miterlimit:10;stroke-opacity:1;stroke-dasharray:none" /><path
       d="m 421.5,135 15,0 0,2.25 -15,0 0,-2.25 z"
       id="path232"
       style="fill:#ffffff;fill-opacity:1;fill-rule:evenodd;stroke:none" /><path
       d="m 421.5,135 15,0 0,2.25 -15,0 0,-2.25 z"
       id="path234"
       style="fill:none;stroke:#000000;stroke-width:0.23999999;stroke-linecap:round;stroke-linejoin:round;stroke-miterlimit:10;stroke-opacity:1;stroke-dasharray:none" /><path
       d="m 65.25,269.25 6,0 0,21 -6,0 0,-21 z"
       id="path236"
       style="fill:#ffffff;fill-opacity:1;fill-rule:evenodd;stroke:none" /><path
       d="m 65.25,269.25 6,0 0,21 -6,0 0,-21 z"
       id="path238"
       style="fill:none;stroke:#ffffff;stroke-width:0.23999999;stroke-linecap:round;stroke-linejoin:round;stroke-miterlimit:10;stroke-opacity:1;stroke-dasharray:none" /><path
       d="m 65.25,269.25 6,0 0,3 -2.25,0 -2.25,0 -1.5,0 0,-3 z m 0,21 6,0 0,-3 -2.25,0 -2.25,0 -1.5,0 0,3 z"
       id="path240"
       style="fill:#ffffff;fill-opacity:1;fill-rule:evenodd;stroke:none" /><path
       d="m 65.25,269.25 6,0 0,3 -2.25,0 m -2.25,0 -1.5,0 0,-3 m 0,21 6,0 0,-3 -2.25,0 m -2.25,0 -1.5,0 0,3"
       id="path242"
       style="fill:none;stroke:#000000;stroke-width:0.23999999;stroke-linecap:round;stroke-linejoin:round;stroke-miterlimit:10;stroke-opacity:1;stroke-dasharray:none" /><path
       d="m 69,272.25 0,0.75 -2.25,0 0,-0.75 2.25,0 z m 0,15 0,-0.75 -2.25,0 0,0.75 2.25,0 z"
       id="path244"
       style="fill:#ffffff;fill-opacity:1;fill-rule:evenodd;stroke:none" /><path
       d="m 69,272.25 0,0.75 -2.25,0 0,-0.75 m 2.25,15 0,-0.75 -2.25,0 0,0.75"
       id="path246"
       style="fill:none;stroke:#000000;stroke-width:0.23999999;stroke-linecap:round;stroke-linejoin:round;stroke-miterlimit:10;stroke-opacity:1;stroke-dasharray:none" /><path
       d="m 65.25,269.25 6,0 m -6,21 6,0"
       id="path248"
       style="fill:none;stroke:#000000;stroke-width:0.23999999;stroke-linecap:round;stroke-linejoin:round;stroke-miterlimit:10;stroke-opacity:1;stroke-dasharray:none" /><path
       d="m 71.347,287.34 c 8.384,0 15.181,-6.8 15.181,-15.18 0,-0.1 -0.001,-0.21 -0.003,-0.31"
       id="path250"
       style="fill:none;stroke:#000000;stroke-width:0.23999999;stroke-linecap:round;stroke-linejoin:round;stroke-miterlimit:10;stroke-opacity:1;stroke-dasharray:none" /><path
       d="m 86.25,273.75 -15,0.75 0,-2.25 15,-0.75 0,2.25 z"
       id="path252"
       style="fill:#ffffff;fill-opacity:1;fill-rule:evenodd;stroke:none" /><path
       d="m 86.25,273.75 -15,0.75 0,-2.25 15,-0.75 0,2.25 z"
       id="path254"
       style="fill:none;stroke:#000000;stroke-width:0.23999999;stroke-linecap:round;stroke-linejoin:round;stroke-miterlimit:10;stroke-opacity:1;stroke-dasharray:none" /><path
       d="m 147.75,257.25 59.25,0 -9,-9 -41.25,0 -9,9 z"
       id="path256"
       style="fill:#b3b3b3;fill-opacity:1;fill-rule:evenodd;stroke:none" /><path
       d="m 147.75,257.25 59.25,0 m -50.25,-9 41.25,0"
       id="path258"
       style="fill:none;stroke:#000000;stroke-width:0.23999999;stroke-linecap:round;stroke-linejoin:round;stroke-miterlimit:10;stroke-opacity:1;stroke-dasharray:none" /><path
       d="m 168.75,248.25 22.5,0 0,9 -22.5,0 0,-9 z"
       id="path260"
       style="fill:#ffffff;fill-opacity:1;fill-rule:evenodd;stroke:none" /><path
       d="m 168.75,248.25 22.5,0 0,9 -22.5,0 0,-9 z"
       id="path262"
       style="fill:none;stroke:#ffffff;stroke-width:0.23999999;stroke-linecap:round;stroke-linejoin:round;stroke-miterlimit:10;stroke-opacity:1;stroke-dasharray:none" /><path
       d="m 191.25,257.25 0,-9 -3,0 0,2.25 0,2.25 0,4.5 3,0 z m -22.5,0 0,-9 3,0 0,2.25 0,2.25 0,4.5 -3,0 z"
       id="path264"
       style="fill:#ffffff;fill-opacity:1;fill-rule:evenodd;stroke:none" /><path
       d="m 191.25,257.25 0,-9 -3,0 0,2.25 m 0,2.25 0,4.5 3,0 m -22.5,0 0,-9 3,0 0,2.25 m 0,2.25 0,4.5 -3,0"
       id="path266"
       style="fill:none;stroke:#000000;stroke-width:0.23999999;stroke-linecap:round;stroke-linejoin:round;stroke-miterlimit:10;stroke-opacity:1;stroke-dasharray:none" /><path
       d="m 188.25,250.5 -0.75,0 0,2.25 0.75,0 0,-2.25 z m -16.5,0 0.75,0 0,2.25 -0.75,0 0,-2.25 z"
       id="path268"
       style="fill:#ffffff;fill-opacity:1;fill-rule:evenodd;stroke:none" /><path
       d="m 188.25,250.5 -0.75,0 0,2.25 0.75,0 m -16.5,-2.25 0.75,0 0,2.25 -0.75,0"
       id="path270"
       style="fill:none;stroke:#000000;stroke-width:0.23999999;stroke-linecap:round;stroke-linejoin:round;stroke-miterlimit:10;stroke-opacity:1;stroke-dasharray:none" /><path
       d="m 191.25,257.25 0,-9 m -22.5,9 0,-9"
       id="path272"
       style="fill:none;stroke:#000000;stroke-width:0.23999999;stroke-linecap:round;stroke-linejoin:round;stroke-miterlimit:10;stroke-opacity:1;stroke-dasharray:none" /><path
       d="m 171.98,248.11 c 0,-8.86 7.18,-16.05 16.04,-16.05"
       id="path274"
       style="fill:none;stroke:#000000;stroke-width:0.23999999;stroke-linecap:round;stroke-linejoin:round;stroke-miterlimit:10;stroke-opacity:1;stroke-dasharray:none" /><path
       d="m 186,231.75 2.25,0 0,16.5 -2.25,0 0,-16.5 z"
       id="path276"
       style="fill:#ffffff;fill-opacity:1;fill-rule:evenodd;stroke:none" /><path
       d="m 186,231.75 2.25,0 0,16.5 -2.25,0 0,-16.5 z"
       id="path278"
       style="fill:none;stroke:#000000;stroke-width:0.23999999;stroke-linecap:round;stroke-linejoin:round;stroke-miterlimit:10;stroke-opacity:1;stroke-dasharray:none" /><path
       d="m 71.25,257.25 54.75,0 -9,-9 -45.75,0 0,9 z"
       id="path280"
       style="fill:#b3b3b3;fill-opacity:1;fill-rule:evenodd;stroke:none" /><path
       d="m 70.5,248.25 0.75,0 0,9 -0.75,0 0,-9 z"
       id="path282"
       style="fill:#b3b3b3;fill-opacity:1;fill-rule:evenodd;stroke:none" /><path
       d="m 71.25,257.25 54.75,0 m -54.75,-9 45.75,0"
       id="path284"
       style="fill:none;stroke:#000000;stroke-width:0.23999999;stroke-linecap:round;stroke-linejoin:round;stroke-miterlimit:10;stroke-opacity:1;stroke-dasharray:none" /><path
       d="m 92.25,248.25 22.5,0 0,9 -22.5,0 0,-9 z"
       id="path286"
       style="fill:#ffffff;fill-opacity:1;fill-rule:evenodd;stroke:none" /><path
       d="m 92.25,248.25 22.5,0 0,9 -22.5,0 0,-9 z"
       id="path288"
       style="fill:none;stroke:#ffffff;stroke-width:0.23999999;stroke-linecap:round;stroke-linejoin:round;stroke-miterlimit:10;stroke-opacity:1;stroke-dasharray:none" /><path
       d="m 92.25,257.25 0,-9 3,0 0,2.25 0,2.25 0,4.5 -3,0 z m 22.5,0 0,-9 -3,0 0,2.25 0,2.25 0,4.5 3,0 z"
       id="path290"
       style="fill:#ffffff;fill-opacity:1;fill-rule:evenodd;stroke:none" /><path
       d="m 92.25,257.25 0,-9 3,0 0,2.25 m 0,2.25 0,4.5 -3,0 m 22.5,0 0,-9 -3,0 0,2.25 m 0,2.25 0,4.5 3,0"
       id="path292"
       style="fill:none;stroke:#000000;stroke-width:0.23999999;stroke-linecap:round;stroke-linejoin:round;stroke-miterlimit:10;stroke-opacity:1;stroke-dasharray:none" /><path
       d="m 95.25,250.5 0.75,0 0,2.25 -0.75,0 0,-2.25 z m 16.5,0 -0.75,0 0,2.25 0.75,0 0,-2.25 z"
       id="path294"
       style="fill:#ffffff;fill-opacity:1;fill-rule:evenodd;stroke:none" /><path
       d="m 95.25,250.5 0.75,0 0,2.25 -0.75,0 m 16.5,-2.25 -0.75,0 0,2.25 0.75,0"
       id="path296"
       style="fill:none;stroke:#000000;stroke-width:0.23999999;stroke-linecap:round;stroke-linejoin:round;stroke-miterlimit:10;stroke-opacity:1;stroke-dasharray:none" /><path
       d="m 92.25,257.25 0,-9 m 22.5,9 0,-9"
       id="path298"
       style="fill:none;stroke:#000000;stroke-width:0.23999999;stroke-linecap:round;stroke-linejoin:round;stroke-miterlimit:10;stroke-opacity:1;stroke-dasharray:none" /><path
       d="m 111.47,248.25 c 0,-8.86 -7.18,-16.04 -16.042,-16.04"
       id="path300"
       style="fill:none;stroke:#000000;stroke-width:0.23999999;stroke-linecap:round;stroke-linejoin:round;stroke-miterlimit:10;stroke-opacity:1;stroke-dasharray:none" /><path
       d="m 95.25,232.5 2.25,0 0,15.75 -2.25,0 0,-15.75 z"
       id="path302"
       style="fill:#ffffff;fill-opacity:1;fill-rule:evenodd;stroke:none" /><path
       d="m 95.25,232.5 2.25,0 0,15.75 -2.25,0 0,-15.75 z"
       id="path304"
       style="fill:none;stroke:#000000;stroke-width:0.23999999;stroke-linecap:round;stroke-linejoin:round;stroke-miterlimit:10;stroke-opacity:1;stroke-dasharray:none" /><path
       d="m 237,472.5 102,0 0,6 -102,0 0,-6 z"
       id="path306"
       style="fill:#ffffff;fill-opacity:1;fill-rule:evenodd;stroke:none" /><path
       d="m 237,472.5 102,0 0,6 -102,0 0,-6 z"
       id="path308"
       style="fill:none;stroke:#ffffff;stroke-width:0.23999999;stroke-linecap:round;stroke-linejoin:round;stroke-miterlimit:10;stroke-opacity:1;stroke-dasharray:none" /><path
       d="m 237,478.5 0,-6 3,0 0,6 -3,0 z m 102,0 0,-6 -3,0 0,6 3,0 z"
       id="path310"
       style="fill:#ffffff;fill-opacity:1;fill-rule:evenodd;stroke:none" /><path
       d="m 237,478.5 0,-6 3,0 0,6 -3,0 z m 102,0 0,-6 -3,0 0,6 3,0 z"
       id="path312"
       style="fill:none;stroke:#000000;stroke-width:0.23999999;stroke-linecap:round;stroke-linejoin:round;stroke-miterlimit:10;stroke-opacity:1;stroke-dasharray:none" /><path
       d="m 237,478.5 0,-6 m 102,6 0,-6"
       id="path314"
       style="fill:none;stroke:#000000;stroke-width:0.23999999;stroke-linecap:round;stroke-linejoin:round;stroke-miterlimit:10;stroke-opacity:1;stroke-dasharray:none" /><path
       d="m 240,409.5 96,0 0,65.25 -96,0 0,-65.25 z"
       id="path316"
       style="fill:#ffffff;fill-opacity:1;fill-rule:evenodd;stroke:none" /><path
       d="m 240,409.5 96,0 0,65.25 -96,0 0,-65.25 z"
       id="path318"
       style="fill:none;stroke:#000000;stroke-width:0.23999999;stroke-linecap:round;stroke-linejoin:round;stroke-miterlimit:10;stroke-opacity:1;stroke-dasharray:none" /><text
       transform="matrix(1,0,0,-1,272.94,485.09)"
       id="text320"><tspan
         x="0 4.3513918 8.1834478 11.804544 13.613184 18.535032 22.753799 26.972569"
         y="0"
         id="tspan322"
         style="font-size:7.99991989px;font-variant:normal;font-weight:normal;writing-mode:lr-tb;fill:#000000;fill-opacity:1;fill-rule:nonzero;stroke:none;font-family:CALIBRI;-inkscape-font-specification:CALIBRI">Bay Door</tspan></text>
<path
       d="m 544.5,351.75 6,0 0,96.75 -6,0 0,-96.75 z"
       id="path324"
       style="fill:#ffffff;fill-opacity:1;fill-rule:evenodd;stroke:none" /><path
       d="m 544.5,351.75 6,0 0,96.75 -6,0 0,-96.75 z"
       id="path326"
       style="fill:none;stroke:#ffffff;stroke-width:0.23999999;stroke-linecap:round;stroke-linejoin:round;stroke-miterlimit:10;stroke-opacity:1;stroke-dasharray:none" /><path
       d="m 550.5,448.5 -6,0 0,-3 6,0 0,3 z m 0,-96.75 -6,0 0,3 6,0 0,-3 z"
       id="path328"
       style="fill:#ffffff;fill-opacity:1;fill-rule:evenodd;stroke:none" /><path
       d="m 550.5,448.5 -6,0 0,-3 6,0 0,3 z m 0,-96.75 -6,0 0,3 6,0 0,-3 z"
       id="path330"
       style="fill:none;stroke:#000000;stroke-width:0.23999999;stroke-linecap:round;stroke-linejoin:round;stroke-miterlimit:10;stroke-opacity:1;stroke-dasharray:none" /><path
       d="m 550.5,448.5 -6,0 m 6,-96.75 -6,0"
       id="path332"
       style="fill:none;stroke:#000000;stroke-width:0.23999999;stroke-linecap:round;stroke-linejoin:round;stroke-miterlimit:10;stroke-opacity:1;stroke-dasharray:none" /><path
       d="m 481.5,354.75 65.25,0 0,90.75 -65.25,0 0,-90.75 z"
       id="path334"
       style="fill:#ffffff;fill-opacity:1;fill-rule:evenodd;stroke:none" /><path
       d="m 481.5,354.75 65.25,0 0,90.75 -65.25,0 0,-90.75 z"
       id="path336"
       style="fill:none;stroke:#000000;stroke-width:0.23999999;stroke-linecap:round;stroke-linejoin:round;stroke-miterlimit:10;stroke-opacity:1;stroke-dasharray:none" /><text
       transform="matrix(0,1,1,0,561.79,385.32)"
       id="text338"><tspan
         x="0 4.3513918 8.1834478 11.804544 13.613184 18.535032 22.753799 26.972569"
         y="0"
         id="tspan340"
         style="font-size:7.99991989px;font-variant:normal;font-weight:normal;writing-mode:lr-tb;fill:#000000;fill-opacity:1;fill-rule:nonzero;stroke:none;font-family:CALIBRI;-inkscape-font-specification:CALIBRI">Bay Door</tspan></text>
<path
       d="m 544.5,175.5 6,0 0,96.75 -6,0 0,-96.75 z"
       id="path342"
       style="fill:#ffffff;fill-opacity:1;fill-rule:evenodd;stroke:none" /><path
       d="m 544.5,175.5 6,0 0,96.75 -6,0 0,-96.75 z"
       id="path344"
       style="fill:none;stroke:#ffffff;stroke-width:0.23999999;stroke-linecap:round;stroke-linejoin:round;stroke-miterlimit:10;stroke-opacity:1;stroke-dasharray:none" /><path
       d="m 550.5,272.25 -6,0 0,-3 6,0 0,3 z m 0,-96.75 -6,0 0,3 6,0 0,-3 z"
       id="path346"
       style="fill:#ffffff;fill-opacity:1;fill-rule:evenodd;stroke:none" /><path
       d="m 550.5,272.25 -6,0 0,-3 6,0 0,3 z m 0,-96.75 -6,0 0,3 6,0 0,-3 z"
       id="path348"
       style="fill:none;stroke:#000000;stroke-width:0.23999999;stroke-linecap:round;stroke-linejoin:round;stroke-miterlimit:10;stroke-opacity:1;stroke-dasharray:none" /><path
       d="m 550.5,272.25 -6,0 m 6,-96.75 -6,0"
       id="path350"
       style="fill:none;stroke:#000000;stroke-width:0.23999999;stroke-linecap:round;stroke-linejoin:round;stroke-miterlimit:10;stroke-opacity:1;stroke-dasharray:none" /><path
       d="m 481.5,178.5 65.25,0 0,90.75 -65.25,0 0,-90.75 z"
       id="path352"
       style="fill:#ffffff;fill-opacity:1;fill-rule:evenodd;stroke:none" /><path
       d="m 481.5,178.5 65.25,0 0,90.75 -65.25,0 0,-90.75 z"
       id="path354"
       style="fill:none;stroke:#000000;stroke-width:0.23999999;stroke-linecap:round;stroke-linejoin:round;stroke-miterlimit:10;stroke-opacity:1;stroke-dasharray:none" /><text
       transform="matrix(0,1,1,0,561.79,209.1)"
       id="text356"><tspan
         x="0 4.3513918 8.1834478 11.804544 13.613184 18.535032 22.753799 26.972569"
         y="0"
         id="tspan358"
         style="font-size:7.99991989px;font-variant:normal;font-weight:normal;writing-mode:lr-tb;fill:#000000;fill-opacity:1;fill-rule:nonzero;stroke:none;font-family:CALIBRI;-inkscape-font-specification:CALIBRI">Bay Door</tspan></text>
<text
       transform="matrix(1,0,0,-1,438.99,543.21)"
       id="text360"><tspan
         x="0 10.01088 15.011856 28.010736 39.005856 44.006832 49.007809 60.00293 65.003906 75.999023"
         y="0"
         id="tspan362"
         style="font-size:18px;font-variant:normal;font-weight:bold;writing-mode:lr-tb;fill:#000000;fill-opacity:1;fill-rule:nonzero;stroke:none;font-family:Arial;-inkscape-font-specification:Arial Bold">J Building</tspan></text>
<text
       transform="matrix(1,0,0,-1,546.99,543.21)"
       id="text364"><tspan
         x="0 12.99888 20.003759 25.997904"
         y="0"
         id="tspan366"
         style="font-size:18px;font-variant:normal;font-weight:bold;writing-mode:lr-tb;fill:#000000;fill-opacity:1;fill-rule:nonzero;stroke:none;font-family:Arial;-inkscape-font-specification:Arial Bold">Art </tspan></text>
<text
       transform="matrix(1,0,0,-1,577.99,543.21)"
       id="text368"><tspan
         x="0 5.0009761"
         y="0"
         id="tspan370"
         style="font-size:18px;font-variant:normal;font-weight:bold;writing-mode:lr-tb;fill:#000000;fill-opacity:1;fill-rule:nonzero;stroke:none;font-family:Arial;-inkscape-font-specification:Arial Bold">/ </tspan></text>
<text
       transform="matrix(1,0,0,-1,587.99,543.21)"
       id="text372"><tspan
         x="0 12.006 23.00112 28.995264 34.989407 45.000286 52.005169"
         y="0"
         id="tspan374"
         style="font-size:18px;font-variant:normal;font-weight:bold;writing-mode:lr-tb;fill:#000000;fill-opacity:1;fill-rule:nonzero;stroke:none;font-family:Arial;-inkscape-font-specification:Arial Bold">Pottery</tspan></text>
<text
       transform="matrix(1,0,0,-1,84.74,180.19)"
       id="text376"><tspan
         x="0 10.67616 17.004313 26.590391 32.561207 38.865959"
         y="0"
         id="tspan378"
         style="font-size:12.00024033px;font-variant:normal;font-weight:normal;writing-mode:lr-tb;fill:#000000;fill-opacity:1;fill-rule:nonzero;stroke:none;font-family:CALIBRI;-inkscape-font-specification:CALIBRI">Women </tspan></text>
<text
       transform="matrix(1,0,0,-1,80.36,165.79)"
       id="text380"><tspan
         x="0 6.5157118 12.486528 17.17992 21.199535 25.383097 31.711248 38.039398"
         y="0"
         id="tspan382"
         style="font-size:12.00024033px;font-variant:normal;font-weight:normal;writing-mode:lr-tb;fill:#000000;fill-opacity:1;fill-rule:nonzero;stroke:none;font-family:CALIBRI;-inkscape-font-specification:CALIBRI">Restroom</tspan></text>
<text
       transform="matrix(1,0,0,-1,159.73,179.85)"
       id="text384"><tspan
         x="0 10.26 16.230816"
         y="0"
         id="tspan386"
         style="font-size:12.00024033px;font-variant:normal;font-weight:normal;writing-mode:lr-tb;fill:#000000;fill-opacity:1;fill-rule:nonzero;stroke:none;font-family:CALIBRI;-inkscape-font-specification:CALIBRI">Men</tspan></text>
<text
       transform="matrix(1,0,0,-1,147.19,165.45)"
       id="text388"><tspan
         x="0 6.5157118 12.486528 17.17992 21.199535 25.383097 31.711248 38.039398"
         y="0"
         id="tspan390"
         style="font-size:12.00024033px;font-variant:normal;font-weight:normal;writing-mode:lr-tb;fill:#000000;fill-opacity:1;fill-rule:nonzero;stroke:none;font-family:CALIBRI;-inkscape-font-specification:CALIBRI">Restroom</tspan></text>
<text
       transform="matrix(1,0,0,-1,481.14,98.063)"
       id="text392"><tspan
         x="0 7.9452 11.607192 15.269184 18.023184 23.097528"
         y="0"
         id="tspan394"
         style="font-size:12.00024033px;font-variant:normal;font-weight:normal;writing-mode:lr-tb;fill:#000000;fill-opacity:1;fill-rule:nonzero;stroke:none;font-family:CALIBRI;-inkscape-font-specification:CALIBRI">Office</tspan></text>
<path
       d="m 178.5,396.75 22.5,0 0,9 -22.5,0 0,-9 z"
       id="path396"
       style="fill:#ffffff;fill-opacity:1;fill-rule:evenodd;stroke:none" /><path
       d="m 178.5,396.75 22.5,0 0,9 -22.5,0 0,-9 z"
       id="path398"
       style="fill:none;stroke:#ffffff;stroke-width:0.23999999;stroke-linecap:round;stroke-linejoin:round;stroke-miterlimit:10;stroke-opacity:1;stroke-dasharray:none" /><path
       d="m 201,396.75 0,9 -3,0 0,-2.25 0,-2.25 0,-4.5 3,0 z m -22.5,0 0,9 3,0 0,-2.25 0,-2.25 0,-4.5 -3,0 z"
       id="path400"
       style="fill:#ffffff;fill-opacity:1;fill-rule:evenodd;stroke:none" /><path
       d="m 201,396.75 0,9 -3,0 0,-2.25 m 0,-2.25 0,-4.5 3,0 m -22.5,0 0,9 3,0 0,-2.25 m 0,-2.25 0,-4.5 -3,0"
       id="path402"
       style="fill:none;stroke:#000000;stroke-width:0.23999999;stroke-linecap:round;stroke-linejoin:round;stroke-miterlimit:10;stroke-opacity:1;stroke-dasharray:none" /><path
       d="m 198,403.5 -0.75,0 0,-2.25 0.75,0 0,2.25 z m -16.5,0 0.75,0 0,-2.25 -0.75,0 0,2.25 z"
       id="path404"
       style="fill:#ffffff;fill-opacity:1;fill-rule:evenodd;stroke:none" /><path
       d="m 198,403.5 -0.75,0 0,-2.25 0.75,0 m -16.5,2.25 0.75,0 0,-2.25 -0.75,0"
       id="path406"
       style="fill:none;stroke:#000000;stroke-width:0.23999999;stroke-linecap:round;stroke-linejoin:round;stroke-miterlimit:10;stroke-opacity:1;stroke-dasharray:none" /><path
       d="m 201,396.75 0,9 m -22.5,-9 0,9"
       id="path408"
       style="fill:none;stroke:#000000;stroke-width:0.23999999;stroke-linecap:round;stroke-linejoin:round;stroke-miterlimit:10;stroke-opacity:1;stroke-dasharray:none" /><path
       d="m 181.8,405.91 c 0,8.86 7.18,16.04 16.04,16.04"
       id="path410"
       style="fill:none;stroke:#000000;stroke-width:0.23999999;stroke-linecap:round;stroke-linejoin:round;stroke-miterlimit:10;stroke-opacity:1;stroke-dasharray:none" /><path
       d="m 195.75,405.75 2.25,0 0,16.5 -2.25,0 0,-16.5 z"
       id="path412"
       style="fill:#ffffff;fill-opacity:1;fill-rule:evenodd;stroke:none" /><path
       d="m 195.75,405.75 2.25,0 0,16.5 -2.25,0 0,-16.5 z"
       id="path414"
       style="fill:none;stroke:#000000;stroke-width:0.23999999;stroke-linecap:round;stroke-linejoin:round;stroke-miterlimit:10;stroke-opacity:1;stroke-dasharray:none" /><text
       transform="matrix(1,0,0,-1,117.38,440.06)"
       id="text416"><tspan
         x="0 4.6933918 8.7130079 15.04116 19.22472 24.972769 30.621096"
         y="0"
         id="tspan418"
         style="font-size:12.00024033px;font-variant:normal;font-weight:normal;writing-mode:lr-tb;fill:#000000;fill-opacity:1;fill-rule:nonzero;stroke:none;font-family:CALIBRI;-inkscape-font-specification:CALIBRI">storage</tspan></text>
</g></svg>